<?xml version="1.0" encoding="UTF-8"?>
<!DOCTYPE svg PUBLIC "-//W3C//DTD SVG 1.1//EN" "http://www.w3.org/Graphics/SVG/1.1/DTD/svg11.dtd">
<svg xmlns="http://www.w3.org/2000/svg" version="1.1" width="64px" height="64px" style="shape-rendering:geometricPrecision; text-rendering:geometricPrecision; image-rendering:optimizeQuality; fill-rule:evenodd; clip-rule:evenodd" xmlns:xlink="http://www.w3.org/1999/xlink">
<g><path style="opacity:0.815" fill="#083c67" d="M 20.5,-0.5 C 22.1667,-0.5 23.8333,-0.5 25.5,-0.5C 31.968,2.44978 34.1347,7.44978 32,14.5C 26.7691,21.5922 20.7691,22.2588 14,16.5C 10.3634,8.34074 12.5301,2.67407 20.5,-0.5 Z"/></g>
<g><path style="opacity:1" fill="#00a8e5" d="M 18.5,2.5 C 27.1584,1.32702 30.9918,4.99369 30,13.5C 25.6875,19.5839 21.0209,19.9172 16,14.5C 13.5112,9.75655 14.3445,5.75655 18.5,2.5 Z"/></g>
<g><path style="opacity:0.842" fill="#093d66" d="M 44.5,63.5 C 42.1667,63.5 39.8333,63.5 37.5,63.5C 32.1031,61.2729 28.1031,57.4395 25.5,52C 18.8417,51.5004 12.175,51.3337 5.5,51.5C 5.33379,45.1579 5.50046,38.8246 6,32.5C 7.43286,27.4018 10.5995,23.9018 15.5,22C 20.5,21.3333 25.5,21.3333 30.5,22C 34.0262,24.0261 36.6929,26.8595 38.5,30.5C 53.0088,31.818 58.8422,39.4847 56,53.5C 53.8062,58.8291 49.9729,62.1625 44.5,63.5 Z"/></g>
<g><path style="opacity:1" fill="#00a8e5" d="M 15.5,23.5 C 20.5988,23.1746 25.5988,23.6746 30.5,25C 33.3633,26.3635 35.3633,28.5302 36.5,31.5C 29.2462,35.3462 25.5795,41.3462 25.5,49.5C 19.5,49.5 13.5,49.5 7.5,49.5C 7.33391,43.8236 7.50058,38.1569 8,32.5C 9.64156,28.6997 12.1416,25.6997 15.5,23.5 Z"/></g>
<g><path style="opacity:1" fill="#01e7cc" d="M 36.5,33.5 C 50.2214,32.7175 56.0547,39.0509 54,52.5C 49.9682,60.0369 43.8015,62.5369 35.5,60C 26.8865,53.9275 25.3865,46.4275 31,37.5C 33.0153,36.3034 34.8487,34.9701 36.5,33.5 Z"/></g>
<g><path style="opacity:1" fill="#124f6f" d="M 38.5,36.5 C 40.1992,36.3398 41.8659,36.5065 43.5,37C 49.067,42.2684 50.9004,48.7684 49,56.5C 48.5,57 48,57.5 47.5,58C 43.5,58.6667 39.5,58.6667 35.5,58C 34.3333,57.5 33.5,56.6667 33,55.5C 32.3333,52.5 32.3333,49.5 33,46.5C 34.6524,43.0542 36.4857,39.7208 38.5,36.5 Z"/></g>
<g><path style="opacity:1" fill="#04dac4" d="M 39.5,38.5 C 43.6971,38.1937 45.6971,40.1937 45.5,44.5C 42.8333,44.5 40.1667,44.5 37.5,44.5C 37.2525,42.1417 37.9192,40.1417 39.5,38.5 Z"/></g>
<g><path style="opacity:1" fill="#e7cb45" d="M 35.5,45.5 C 39.1817,45.3347 42.8484,45.5014 46.5,46C 47.4558,49.3936 47.7892,52.8936 47.5,56.5C 43.4862,56.6655 39.4862,56.4988 35.5,56C 34.2035,52.5011 34.2035,49.0011 35.5,45.5 Z"/></g>
<g><path style="opacity:1" fill="#0f3a62" d="M 39.5,49.5 C 40.5,49.5 41.5,49.5 42.5,49.5C 41.5,56.1667 40.5,56.1667 39.5,49.5 Z"/></g>
</svg>
