<svg id="calendar" xmlns="http://www.w3.org/2000/svg" width="30" height="27.07" viewBox="0 0 30 27.07">
  <path id="Path_91" data-name="Path 91" d="M99.754,249H97.879a.879.879,0,0,0,0,1.758h1.875a.879.879,0,0,0,0-1.758Z" transform="translate(-91.316 -235.875)" fill="#232323"/>
  <path id="Path_92" data-name="Path 92" d="M99.754,313H97.879a.879.879,0,0,0,0,1.758h1.875a.879.879,0,0,0,0-1.758Z" transform="translate(-91.316 -296.125)" fill="#232323"/>
  <path id="Path_93" data-name="Path 93" d="M99.754,377H97.879a.879.879,0,0,0,0,1.758h1.875a.879.879,0,0,0,0-1.758Z" transform="translate(-91.316 -356.375)" fill="#232323"/>
  <path id="Path_94" data-name="Path 94" d="M227.754,249h-1.875a.879.879,0,0,0,0,1.758h1.875a.879.879,0,0,0,0-1.758Z" transform="translate(-211.816 -235.875)" fill="#232323"/>
  <path id="Path_95" data-name="Path 95" d="M227.754,313h-1.875a.879.879,0,0,0,0,1.758h1.875a.879.879,0,0,0,0-1.758Z" transform="translate(-211.816 -296.125)" fill="#232323"/>
  <path id="Path_96" data-name="Path 96" d="M227.754,377h-1.875a.879.879,0,0,0,0,1.758h1.875a.879.879,0,0,0,0-1.758Z" transform="translate(-211.816 -356.375)" fill="#232323"/>
  <path id="Path_97" data-name="Path 97" d="M355.754,249h-1.875a.879.879,0,0,0,0,1.758h1.875a.879.879,0,0,0,0-1.758Z" transform="translate(-332.316 -235.875)" fill="#232323"/>
  <path id="Path_98" data-name="Path 98" d="M355.754,313h-1.875a.879.879,0,0,0,0,1.758h1.875a.879.879,0,0,0,0-1.758Z" transform="translate(-332.316 -296.125)" fill="#232323"/>
  <path id="Path_99" data-name="Path 99" d="M355.754,377h-1.875a.879.879,0,0,0,0,1.758h1.875a.879.879,0,0,0,0-1.758Z" transform="translate(-332.316 -356.375)" fill="#232323"/>
  <path id="Path_100" data-name="Path 100" d="M27.363,27.344H25.254V25.879a.879.879,0,0,0-1.758,0v1.465H15.879V25.879a.879.879,0,0,0-1.758,0v1.465H6.5V25.879a.879.879,0,0,0-1.758,0v1.465H2.637A2.64,2.64,0,0,0,0,29.98V49.434A2.64,2.64,0,0,0,2.637,52.07H27.363A2.64,2.64,0,0,0,30,49.434V29.98A2.64,2.64,0,0,0,27.363,27.344ZM1.758,29.98a.88.88,0,0,1,.879-.879H4.746v1.465a.879.879,0,0,0,1.758,0V29.1h7.617v1.465a.879.879,0,0,0,1.758,0V29.1H23.5v1.465a.879.879,0,0,0,1.758,0V29.1h2.109a.88.88,0,0,1,.879.879v3.457H1.758ZM27.363,50.313H2.637a.88.88,0,0,1-.879-.879V35.2H28.242V49.434A.88.88,0,0,1,27.363,50.313Z" transform="translate(0 -25)" fill="#232323"/>
</svg>
