<svg id="Group_90" data-name="Group 90" xmlns="http://www.w3.org/2000/svg" width="16.888" height="21.708" viewBox="0 0 16.888 21.708">
  <g id="delete">
    <path id="Path_68" data-name="Path 68" d="M126.775,1.31H130.4v.61h1.31v-.7A1.226,1.226,0,0,0,130.489,0h-3.8a1.226,1.226,0,0,0-1.224,1.225v.7h1.31Zm0,0" transform="translate(-120.145 0)" fill="#00a3e0"/>
    <path id="Path_69" data-name="Path 69" d="M53.368,167.75h-12.3a.577.577,0,0,0-.575.624l1.028,12.716a1.366,1.366,0,0,0,1.361,1.257h8.672a1.366,1.366,0,0,0,1.361-1.257l1.028-12.716a.577.577,0,0,0-.575-.624Zm-9.322,13.24H44a.655.655,0,0,1-.653-.615l-.644-10.439a.655.655,0,0,1,1.308-.081l.644,10.439A.655.655,0,0,1,44.046,180.99Zm3.834-.654a.655.655,0,0,1-1.31,0V169.9a.655.655,0,0,1,1.31,0Zm3.848-10.4-.615,10.439a.655.655,0,0,1-.653.617h-.039a.655.655,0,0,1-.615-.693l.615-10.439a.655.655,0,1,1,1.308.077Zm0,0" transform="translate(-38.774 -160.638)" fill="#00a3e0"/>
    <path id="Path_70" data-name="Path 70" d="M16.86,78.071l-.43-1.29a.833.833,0,0,0-.79-.569H1.249a.833.833,0,0,0-.79.569l-.43,1.29a.541.541,0,0,0,.513.712H16.347a.534.534,0,0,0,.286-.083.54.54,0,0,0,.227-.629Zm0,0" transform="translate(0 -72.98)" fill="#00a3e0"/>
  </g>
</svg>
