<svg width="1000" height="1000" viewBox="0 0 23 23" xmlns="http://www.w3.org/2000/svg"><g transform="translate(1, 1)"><g shape-rendering="crispEdges"><g><rect ry="0" stroke-width="0" x="8" y="0" width="1" height="1" fill-opacity="1" fill="rgb(255, 255, 255)"></rect><rect ry="0" stroke-width="0" x="9" y="0" width="1" height="1" fill-opacity="1" fill="rgb(0, 0, 0)"></rect><rect ry="0" stroke-width="0" x="10" y="0" width="1" height="1" fill-opacity="1" fill="rgb(255, 255, 255)"></rect><rect ry="0" stroke-width="0" x="11" y="0" width="1" height="1" fill-opacity="1" fill="rgb(0, 0, 0)"></rect><rect ry="0" stroke-width="0" x="12" y="0" width="1" height="1" fill-opacity="1" fill="rgb(0, 0, 0)"></rect></g><g><rect ry="0" stroke-width="0" x="8" y="1" width="1" height="1" fill-opacity="1" fill="rgb(255, 255, 255)"></rect><rect ry="0" stroke-width="0" x="9" y="1" width="1" height="1" fill-opacity="1" fill="rgb(0, 0, 0)"></rect><rect ry="0" stroke-width="0" x="10" y="1" width="1" height="1" fill-opacity="1" fill="rgb(0, 0, 0)"></rect><rect ry="0" stroke-width="0" x="11" y="1" width="1" height="1" fill-opacity="1" fill="rgb(0, 0, 0)"></rect><rect ry="0" stroke-width="0" x="12" y="1" width="1" height="1" fill-opacity="1" fill="rgb(255, 255, 255)"></rect></g><g><rect ry="0" stroke-width="0" x="8" y="2" width="1" height="1" fill-opacity="1" fill="rgb(0, 0, 0)"></rect><rect ry="0" stroke-width="0" x="9" y="2" width="1" height="1" fill-opacity="1" fill="rgb(0, 0, 0)"></rect><rect ry="0" stroke-width="0" x="10" y="2" width="1" height="1" fill-opacity="1" fill="rgb(255, 255, 255)"></rect><rect ry="0" stroke-width="0" x="11" y="2" width="1" height="1" fill-opacity="1" fill="rgb(0, 0, 0)"></rect><rect ry="0" stroke-width="0" x="12" y="2" width="1" height="1" fill-opacity="1" fill="rgb(0, 0, 0)"></rect></g><g><rect ry="0" stroke-width="0" x="8" y="3" width="1" height="1" fill-opacity="1" fill="rgb(255, 255, 255)"></rect><rect ry="0" stroke-width="0" x="9" y="3" width="1" height="1" fill-opacity="1" fill="rgb(0, 0, 0)"></rect><rect ry="0" stroke-width="0" x="10" y="3" width="1" height="1" fill-opacity="1" fill="rgb(255, 255, 255)"></rect><rect ry="0" stroke-width="0" x="11" y="3" width="1" height="1" fill-opacity="1" fill="rgb(0, 0, 0)"></rect><rect ry="0" stroke-width="0" x="12" y="3" width="1" height="1" fill-opacity="1" fill="rgb(255, 255, 255)"></rect></g><g><rect ry="0" stroke-width="0" x="8" y="4" width="1" height="1" fill-opacity="1" fill="rgb(255, 255, 255)"></rect><rect ry="0" stroke-width="0" x="9" y="4" width="1" height="1" fill-opacity="1" fill="rgb(255, 255, 255)"></rect><rect ry="0" stroke-width="0" x="10" y="4" width="1" height="1" fill-opacity="1" fill="rgb(0, 0, 0)"></rect><rect ry="0" stroke-width="0" x="11" y="4" width="1" height="1" fill-opacity="1" fill="rgb(255, 255, 255)"></rect><rect ry="0" stroke-width="0" x="12" y="4" width="1" height="1" fill-opacity="1" fill="rgb(0, 0, 0)"></rect></g><g><rect ry="0" stroke-width="0" x="8" y="5" width="1" height="1" fill-opacity="1" fill="rgb(255, 255, 255)"></rect><rect ry="0" stroke-width="0" x="9" y="5" width="1" height="1" fill-opacity="1" fill="rgb(255, 255, 255)"></rect><rect ry="0" stroke-width="0" x="10" y="5" width="1" height="1" fill-opacity="1" fill="rgb(255, 255, 255)"></rect><rect ry="0" stroke-width="0" x="11" y="5" width="1" height="1" fill-opacity="1" fill="rgb(255, 255, 255)"></rect><rect ry="0" stroke-width="0" x="12" y="5" width="1" height="1" fill-opacity="1" fill="rgb(0, 0, 0)"></rect></g><g><rect ry="0" stroke-width="0" x="8" y="6" width="1" height="1" fill-opacity="1" fill="rgb(0, 0, 0)"></rect><rect ry="0" stroke-width="0" x="9" y="6" width="1" height="1" fill-opacity="1" fill="rgb(255, 255, 255)"></rect><rect ry="0" stroke-width="0" x="10" y="6" width="1" height="1" fill-opacity="1" fill="rgb(0, 0, 0)"></rect><rect ry="0" stroke-width="0" x="11" y="6" width="1" height="1" fill-opacity="1" fill="rgb(255, 255, 255)"></rect><rect ry="0" stroke-width="0" x="12" y="6" width="1" height="1" fill-opacity="1" fill="rgb(0, 0, 0)"></rect></g><g><rect ry="0" stroke-width="0" x="8" y="7" width="1" height="1" fill-opacity="1" fill="rgb(0, 0, 0)"></rect><rect ry="0" stroke-width="0" x="9" y="7" width="1" height="1" fill-opacity="1" fill="rgb(0, 0, 0)"></rect><rect ry="0" stroke-width="0" x="10" y="7" width="1" height="1" fill-opacity="1" fill="rgb(255, 255, 255)"></rect><rect ry="0" stroke-width="0" x="11" y="7" width="1" height="1" fill-opacity="1" fill="rgb(0, 0, 0)"></rect><rect ry="0" stroke-width="0" x="12" y="7" width="1" height="1" fill-opacity="1" fill="rgb(0, 0, 0)"></rect></g><g><rect ry="0" stroke-width="0" x="0" y="8" width="1" height="1" fill-opacity="1" fill="rgb(0, 0, 0)"></rect><rect ry="0" stroke-width="0" x="1" y="8" width="1" height="1" fill-opacity="1" fill="rgb(0, 0, 0)"></rect><rect ry="0" stroke-width="0" x="2" y="8" width="1" height="1" fill-opacity="1" fill="rgb(0, 0, 0)"></rect><rect ry="0" stroke-width="0" x="3" y="8" width="1" height="1" fill-opacity="1" fill="rgb(255, 255, 255)"></rect><rect ry="0" stroke-width="0" x="4" y="8" width="1" height="1" fill-opacity="1" fill="rgb(0, 0, 0)"></rect><rect ry="0" stroke-width="0" x="5" y="8" width="1" height="1" fill-opacity="1" fill="rgb(0, 0, 0)"></rect><rect ry="0" stroke-width="0" x="6" y="8" width="1" height="1" fill-opacity="1" fill="rgb(0, 0, 0)"></rect><rect ry="0" stroke-width="0" x="7" y="8" width="1" height="1" fill-opacity="1" fill="rgb(0, 0, 0)"></rect><rect ry="0" stroke-width="0" x="8" y="8" width="1" height="1" fill-opacity="1" fill="rgb(0, 0, 0)"></rect><rect ry="0" stroke-width="0" x="9" y="8" width="1" height="1" fill-opacity="1" fill="rgb(0, 0, 0)"></rect><rect ry="0" stroke-width="0" x="10" y="8" width="1" height="1" fill-opacity="1" fill="rgb(0, 0, 0)"></rect><rect ry="0" stroke-width="0" x="11" y="8" width="1" height="1" fill-opacity="1" fill="rgb(0, 0, 0)"></rect><rect ry="0" stroke-width="0" x="12" y="8" width="1" height="1" fill-opacity="1" fill="rgb(255, 255, 255)"></rect><rect ry="0" stroke-width="0" x="13" y="8" width="1" height="1" fill-opacity="1" fill="rgb(0, 0, 0)"></rect><rect ry="0" stroke-width="0" x="14" y="8" width="1" height="1" fill-opacity="1" fill="rgb(0, 0, 0)"></rect><rect ry="0" stroke-width="0" x="15" y="8" width="1" height="1" fill-opacity="1" fill="rgb(255, 255, 255)"></rect><rect ry="0" stroke-width="0" x="16" y="8" width="1" height="1" fill-opacity="1" fill="rgb(255, 255, 255)"></rect><rect ry="0" stroke-width="0" x="17" y="8" width="1" height="1" fill-opacity="1" fill="rgb(255, 255, 255)"></rect><rect ry="0" stroke-width="0" x="18" y="8" width="1" height="1" fill-opacity="1" fill="rgb(0, 0, 0)"></rect><rect ry="0" stroke-width="0" x="19" y="8" width="1" height="1" fill-opacity="1" fill="rgb(255, 255, 255)"></rect><rect ry="0" stroke-width="0" x="20" y="8" width="1" height="1" fill-opacity="1" fill="rgb(255, 255, 255)"></rect></g><g><rect ry="0" stroke-width="0" x="0" y="9" width="1" height="1" fill-opacity="1" fill="rgb(255, 255, 255)"></rect><rect ry="0" stroke-width="0" x="1" y="9" width="1" height="1" fill-opacity="1" fill="rgb(0, 0, 0)"></rect><rect ry="0" stroke-width="0" x="2" y="9" width="1" height="1" fill-opacity="1" fill="rgb(255, 255, 255)"></rect><rect ry="0" stroke-width="0" x="3" y="9" width="1" height="1" fill-opacity="1" fill="rgb(255, 255, 255)"></rect><rect ry="0" stroke-width="0" x="4" y="9" width="1" height="1" fill-opacity="1" fill="rgb(0, 0, 0)"></rect><rect ry="0" stroke-width="0" x="5" y="9" width="1" height="1" fill-opacity="1" fill="rgb(255, 255, 255)"></rect><rect ry="0" stroke-width="0" x="6" y="9" width="1" height="1" fill-opacity="1" fill="rgb(255, 255, 255)"></rect><rect ry="0" stroke-width="0" x="7" y="9" width="1" height="1" fill-opacity="1" fill="rgb(255, 255, 255)"></rect><rect ry="0" stroke-width="0" x="8" y="9" width="1" height="1" fill-opacity="1" fill="rgb(0, 0, 0)"></rect><rect ry="0" stroke-width="0" x="9" y="9" width="1" height="1" fill-opacity="1" fill="rgb(0, 0, 0)"></rect><rect ry="0" stroke-width="0" x="10" y="9" width="1" height="1" fill-opacity="1" fill="rgb(0, 0, 0)"></rect><rect ry="0" stroke-width="0" x="11" y="9" width="1" height="1" fill-opacity="1" fill="rgb(255, 255, 255)"></rect><rect ry="0" stroke-width="0" x="12" y="9" width="1" height="1" fill-opacity="1" fill="rgb(255, 255, 255)"></rect><rect ry="0" stroke-width="0" x="13" y="9" width="1" height="1" fill-opacity="1" fill="rgb(255, 255, 255)"></rect><rect ry="0" stroke-width="0" x="14" y="9" width="1" height="1" fill-opacity="1" fill="rgb(0, 0, 0)"></rect><rect ry="0" stroke-width="0" x="15" y="9" width="1" height="1" fill-opacity="1" fill="rgb(0, 0, 0)"></rect><rect ry="0" stroke-width="0" x="16" y="9" width="1" height="1" fill-opacity="1" fill="rgb(255, 255, 255)"></rect><rect ry="0" stroke-width="0" x="17" y="9" width="1" height="1" fill-opacity="1" fill="rgb(255, 255, 255)"></rect><rect ry="0" stroke-width="0" x="18" y="9" width="1" height="1" fill-opacity="1" fill="rgb(255, 255, 255)"></rect><rect ry="0" stroke-width="0" x="19" y="9" width="1" height="1" fill-opacity="1" fill="rgb(255, 255, 255)"></rect><rect ry="0" stroke-width="0" x="20" y="9" width="1" height="1" fill-opacity="1" fill="rgb(0, 0, 0)"></rect></g><g><rect ry="0" stroke-width="0" x="0" y="10" width="1" height="1" fill-opacity="1" fill="rgb(255, 255, 255)"></rect><rect ry="0" stroke-width="0" x="1" y="10" width="1" height="1" fill-opacity="1" fill="rgb(0, 0, 0)"></rect><rect ry="0" stroke-width="0" x="2" y="10" width="1" height="1" fill-opacity="1" fill="rgb(255, 255, 255)"></rect><rect ry="0" stroke-width="0" x="3" y="10" width="1" height="1" fill-opacity="1" fill="rgb(0, 0, 0)"></rect><rect ry="0" stroke-width="0" x="4" y="10" width="1" height="1" fill-opacity="1" fill="rgb(0, 0, 0)"></rect><rect ry="0" stroke-width="0" x="5" y="10" width="1" height="1" fill-opacity="1" fill="rgb(0, 0, 0)"></rect><rect ry="0" stroke-width="0" x="6" y="10" width="1" height="1" fill-opacity="1" fill="rgb(0, 0, 0)"></rect><rect ry="0" stroke-width="0" x="7" y="10" width="1" height="1" fill-opacity="1" fill="rgb(0, 0, 0)"></rect><rect ry="0" stroke-width="0" x="8" y="10" width="1" height="1" fill-opacity="1" fill="rgb(255, 255, 255)"></rect><rect ry="0" stroke-width="0" x="9" y="10" width="1" height="1" fill-opacity="1" fill="rgb(0, 0, 0)"></rect><rect ry="0" stroke-width="0" x="10" y="10" width="1" height="1" fill-opacity="1" fill="rgb(0, 0, 0)"></rect><rect ry="0" stroke-width="0" x="11" y="10" width="1" height="1" fill-opacity="1" fill="rgb(255, 255, 255)"></rect><rect ry="0" stroke-width="0" x="12" y="10" width="1" height="1" fill-opacity="1" fill="rgb(0, 0, 0)"></rect><rect ry="0" stroke-width="0" x="13" y="10" width="1" height="1" fill-opacity="1" fill="rgb(255, 255, 255)"></rect><rect ry="0" stroke-width="0" x="14" y="10" width="1" height="1" fill-opacity="1" fill="rgb(255, 255, 255)"></rect><rect ry="0" stroke-width="0" x="15" y="10" width="1" height="1" fill-opacity="1" fill="rgb(255, 255, 255)"></rect><rect ry="0" stroke-width="0" x="16" y="10" width="1" height="1" fill-opacity="1" fill="rgb(0, 0, 0)"></rect><rect ry="0" stroke-width="0" x="17" y="10" width="1" height="1" fill-opacity="1" fill="rgb(255, 255, 255)"></rect><rect ry="0" stroke-width="0" x="18" y="10" width="1" height="1" fill-opacity="1" fill="rgb(0, 0, 0)"></rect><rect ry="0" stroke-width="0" x="19" y="10" width="1" height="1" fill-opacity="1" fill="rgb(255, 255, 255)"></rect><rect ry="0" stroke-width="0" x="20" y="10" width="1" height="1" fill-opacity="1" fill="rgb(0, 0, 0)"></rect></g><g><rect ry="0" stroke-width="0" x="0" y="11" width="1" height="1" fill-opacity="1" fill="rgb(0, 0, 0)"></rect><rect ry="0" stroke-width="0" x="1" y="11" width="1" height="1" fill-opacity="1" fill="rgb(0, 0, 0)"></rect><rect ry="0" stroke-width="0" x="2" y="11" width="1" height="1" fill-opacity="1" fill="rgb(0, 0, 0)"></rect><rect ry="0" stroke-width="0" x="3" y="11" width="1" height="1" fill-opacity="1" fill="rgb(255, 255, 255)"></rect><rect ry="0" stroke-width="0" x="4" y="11" width="1" height="1" fill-opacity="1" fill="rgb(0, 0, 0)"></rect><rect ry="0" stroke-width="0" x="5" y="11" width="1" height="1" fill-opacity="1" fill="rgb(0, 0, 0)"></rect><rect ry="0" stroke-width="0" x="6" y="11" width="1" height="1" fill-opacity="1" fill="rgb(255, 255, 255)"></rect><rect ry="0" stroke-width="0" x="7" y="11" width="1" height="1" fill-opacity="1" fill="rgb(255, 255, 255)"></rect><rect ry="0" stroke-width="0" x="8" y="11" width="1" height="1" fill-opacity="1" fill="rgb(0, 0, 0)"></rect><rect ry="0" stroke-width="0" x="9" y="11" width="1" height="1" fill-opacity="1" fill="rgb(255, 255, 255)"></rect><rect ry="0" stroke-width="0" x="10" y="11" width="1" height="1" fill-opacity="1" fill="rgb(255, 255, 255)"></rect><rect ry="0" stroke-width="0" x="11" y="11" width="1" height="1" fill-opacity="1" fill="rgb(255, 255, 255)"></rect><rect ry="0" stroke-width="0" x="12" y="11" width="1" height="1" fill-opacity="1" fill="rgb(255, 255, 255)"></rect><rect ry="0" stroke-width="0" x="13" y="11" width="1" height="1" fill-opacity="1" fill="rgb(255, 255, 255)"></rect><rect ry="0" stroke-width="0" x="14" y="11" width="1" height="1" fill-opacity="1" fill="rgb(0, 0, 0)"></rect><rect ry="0" stroke-width="0" x="15" y="11" width="1" height="1" fill-opacity="1" fill="rgb(0, 0, 0)"></rect><rect ry="0" stroke-width="0" x="16" y="11" width="1" height="1" fill-opacity="1" fill="rgb(255, 255, 255)"></rect><rect ry="0" stroke-width="0" x="17" y="11" width="1" height="1" fill-opacity="1" fill="rgb(0, 0, 0)"></rect><rect ry="0" stroke-width="0" x="18" y="11" width="1" height="1" fill-opacity="1" fill="rgb(0, 0, 0)"></rect><rect ry="0" stroke-width="0" x="19" y="11" width="1" height="1" fill-opacity="1" fill="rgb(255, 255, 255)"></rect><rect ry="0" stroke-width="0" x="20" y="11" width="1" height="1" fill-opacity="1" fill="rgb(255, 255, 255)"></rect></g><g><rect ry="0" stroke-width="0" x="0" y="12" width="1" height="1" fill-opacity="1" fill="rgb(255, 255, 255)"></rect><rect ry="0" stroke-width="0" x="1" y="12" width="1" height="1" fill-opacity="1" fill="rgb(255, 255, 255)"></rect><rect ry="0" stroke-width="0" x="2" y="12" width="1" height="1" fill-opacity="1" fill="rgb(0, 0, 0)"></rect><rect ry="0" stroke-width="0" x="3" y="12" width="1" height="1" fill-opacity="1" fill="rgb(0, 0, 0)"></rect><rect ry="0" stroke-width="0" x="4" y="12" width="1" height="1" fill-opacity="1" fill="rgb(0, 0, 0)"></rect><rect ry="0" stroke-width="0" x="5" y="12" width="1" height="1" fill-opacity="1" fill="rgb(255, 255, 255)"></rect><rect ry="0" stroke-width="0" x="6" y="12" width="1" height="1" fill-opacity="1" fill="rgb(0, 0, 0)"></rect><rect ry="0" stroke-width="0" x="7" y="12" width="1" height="1" fill-opacity="1" fill="rgb(0, 0, 0)"></rect><rect ry="0" stroke-width="0" x="8" y="12" width="1" height="1" fill-opacity="1" fill="rgb(0, 0, 0)"></rect><rect ry="0" stroke-width="0" x="9" y="12" width="1" height="1" fill-opacity="1" fill="rgb(255, 255, 255)"></rect><rect ry="0" stroke-width="0" x="10" y="12" width="1" height="1" fill-opacity="1" fill="rgb(0, 0, 0)"></rect><rect ry="0" stroke-width="0" x="11" y="12" width="1" height="1" fill-opacity="1" fill="rgb(255, 255, 255)"></rect><rect ry="0" stroke-width="0" x="12" y="12" width="1" height="1" fill-opacity="1" fill="rgb(0, 0, 0)"></rect><rect ry="0" stroke-width="0" x="13" y="12" width="1" height="1" fill-opacity="1" fill="rgb(255, 255, 255)"></rect><rect ry="0" stroke-width="0" x="14" y="12" width="1" height="1" fill-opacity="1" fill="rgb(0, 0, 0)"></rect><rect ry="0" stroke-width="0" x="15" y="12" width="1" height="1" fill-opacity="1" fill="rgb(255, 255, 255)"></rect><rect ry="0" stroke-width="0" x="16" y="12" width="1" height="1" fill-opacity="1" fill="rgb(0, 0, 0)"></rect><rect ry="0" stroke-width="0" x="17" y="12" width="1" height="1" fill-opacity="1" fill="rgb(0, 0, 0)"></rect><rect ry="0" stroke-width="0" x="18" y="12" width="1" height="1" fill-opacity="1" fill="rgb(0, 0, 0)"></rect><rect ry="0" stroke-width="0" x="19" y="12" width="1" height="1" fill-opacity="1" fill="rgb(0, 0, 0)"></rect><rect ry="0" stroke-width="0" x="20" y="12" width="1" height="1" fill-opacity="1" fill="rgb(0, 0, 0)"></rect></g><g><rect ry="0" stroke-width="0" x="8" y="13" width="1" height="1" fill-opacity="1" fill="rgb(0, 0, 0)"></rect><rect ry="0" stroke-width="0" x="9" y="13" width="1" height="1" fill-opacity="1" fill="rgb(0, 0, 0)"></rect><rect ry="0" stroke-width="0" x="10" y="13" width="1" height="1" fill-opacity="1" fill="rgb(0, 0, 0)"></rect><rect ry="0" stroke-width="0" x="11" y="13" width="1" height="1" fill-opacity="1" fill="rgb(0, 0, 0)"></rect><rect ry="0" stroke-width="0" x="12" y="13" width="1" height="1" fill-opacity="1" fill="rgb(255, 255, 255)"></rect><rect ry="0" stroke-width="0" x="13" y="13" width="1" height="1" fill-opacity="1" fill="rgb(0, 0, 0)"></rect><rect ry="0" stroke-width="0" x="14" y="13" width="1" height="1" fill-opacity="1" fill="rgb(255, 255, 255)"></rect><rect ry="0" stroke-width="0" x="15" y="13" width="1" height="1" fill-opacity="1" fill="rgb(0, 0, 0)"></rect><rect ry="0" stroke-width="0" x="16" y="13" width="1" height="1" fill-opacity="1" fill="rgb(255, 255, 255)"></rect><rect ry="0" stroke-width="0" x="17" y="13" width="1" height="1" fill-opacity="1" fill="rgb(255, 255, 255)"></rect><rect ry="0" stroke-width="0" x="18" y="13" width="1" height="1" fill-opacity="1" fill="rgb(0, 0, 0)"></rect><rect ry="0" stroke-width="0" x="19" y="13" width="1" height="1" fill-opacity="1" fill="rgb(0, 0, 0)"></rect><rect ry="0" stroke-width="0" x="20" y="13" width="1" height="1" fill-opacity="1" fill="rgb(255, 255, 255)"></rect></g><g><rect ry="0" stroke-width="0" x="8" y="14" width="1" height="1" fill-opacity="1" fill="rgb(0, 0, 0)"></rect><rect ry="0" stroke-width="0" x="9" y="14" width="1" height="1" fill-opacity="1" fill="rgb(0, 0, 0)"></rect><rect ry="0" stroke-width="0" x="10" y="14" width="1" height="1" fill-opacity="1" fill="rgb(255, 255, 255)"></rect><rect ry="0" stroke-width="0" x="11" y="14" width="1" height="1" fill-opacity="1" fill="rgb(0, 0, 0)"></rect><rect ry="0" stroke-width="0" x="12" y="14" width="1" height="1" fill-opacity="1" fill="rgb(255, 255, 255)"></rect><rect ry="0" stroke-width="0" x="13" y="14" width="1" height="1" fill-opacity="1" fill="rgb(0, 0, 0)"></rect><rect ry="0" stroke-width="0" x="14" y="14" width="1" height="1" fill-opacity="1" fill="rgb(0, 0, 0)"></rect><rect ry="0" stroke-width="0" x="15" y="14" width="1" height="1" fill-opacity="1" fill="rgb(255, 255, 255)"></rect><rect ry="0" stroke-width="0" x="16" y="14" width="1" height="1" fill-opacity="1" fill="rgb(255, 255, 255)"></rect><rect ry="0" stroke-width="0" x="17" y="14" width="1" height="1" fill-opacity="1" fill="rgb(255, 255, 255)"></rect><rect ry="0" stroke-width="0" x="18" y="14" width="1" height="1" fill-opacity="1" fill="rgb(0, 0, 0)"></rect><rect ry="0" stroke-width="0" x="19" y="14" width="1" height="1" fill-opacity="1" fill="rgb(0, 0, 0)"></rect><rect ry="0" stroke-width="0" x="20" y="14" width="1" height="1" fill-opacity="1" fill="rgb(255, 255, 255)"></rect></g><g><rect ry="0" stroke-width="0" x="8" y="15" width="1" height="1" fill-opacity="1" fill="rgb(0, 0, 0)"></rect><rect ry="0" stroke-width="0" x="9" y="15" width="1" height="1" fill-opacity="1" fill="rgb(255, 255, 255)"></rect><rect ry="0" stroke-width="0" x="10" y="15" width="1" height="1" fill-opacity="1" fill="rgb(0, 0, 0)"></rect><rect ry="0" stroke-width="0" x="11" y="15" width="1" height="1" fill-opacity="1" fill="rgb(0, 0, 0)"></rect><rect ry="0" stroke-width="0" x="12" y="15" width="1" height="1" fill-opacity="1" fill="rgb(0, 0, 0)"></rect><rect ry="0" stroke-width="0" x="13" y="15" width="1" height="1" fill-opacity="1" fill="rgb(0, 0, 0)"></rect><rect ry="0" stroke-width="0" x="14" y="15" width="1" height="1" fill-opacity="1" fill="rgb(255, 255, 255)"></rect><rect ry="0" stroke-width="0" x="15" y="15" width="1" height="1" fill-opacity="1" fill="rgb(0, 0, 0)"></rect><rect ry="0" stroke-width="0" x="16" y="15" width="1" height="1" fill-opacity="1" fill="rgb(255, 255, 255)"></rect><rect ry="0" stroke-width="0" x="17" y="15" width="1" height="1" fill-opacity="1" fill="rgb(255, 255, 255)"></rect><rect ry="0" stroke-width="0" x="18" y="15" width="1" height="1" fill-opacity="1" fill="rgb(255, 255, 255)"></rect><rect ry="0" stroke-width="0" x="19" y="15" width="1" height="1" fill-opacity="1" fill="rgb(0, 0, 0)"></rect><rect ry="0" stroke-width="0" x="20" y="15" width="1" height="1" fill-opacity="1" fill="rgb(255, 255, 255)"></rect></g><g><rect ry="0" stroke-width="0" x="8" y="16" width="1" height="1" fill-opacity="1" fill="rgb(0, 0, 0)"></rect><rect ry="0" stroke-width="0" x="9" y="16" width="1" height="1" fill-opacity="1" fill="rgb(0, 0, 0)"></rect><rect ry="0" stroke-width="0" x="10" y="16" width="1" height="1" fill-opacity="1" fill="rgb(0, 0, 0)"></rect><rect ry="0" stroke-width="0" x="11" y="16" width="1" height="1" fill-opacity="1" fill="rgb(0, 0, 0)"></rect><rect ry="0" stroke-width="0" x="12" y="16" width="1" height="1" fill-opacity="1" fill="rgb(255, 255, 255)"></rect><rect ry="0" stroke-width="0" x="13" y="16" width="1" height="1" fill-opacity="1" fill="rgb(0, 0, 0)"></rect><rect ry="0" stroke-width="0" x="14" y="16" width="1" height="1" fill-opacity="1" fill="rgb(0, 0, 0)"></rect><rect ry="0" stroke-width="0" x="15" y="16" width="1" height="1" fill-opacity="1" fill="rgb(255, 255, 255)"></rect><rect ry="0" stroke-width="0" x="16" y="16" width="1" height="1" fill-opacity="1" fill="rgb(255, 255, 255)"></rect><rect ry="0" stroke-width="0" x="17" y="16" width="1" height="1" fill-opacity="1" fill="rgb(255, 255, 255)"></rect><rect ry="0" stroke-width="0" x="18" y="16" width="1" height="1" fill-opacity="1" fill="rgb(0, 0, 0)"></rect><rect ry="0" stroke-width="0" x="19" y="16" width="1" height="1" fill-opacity="1" fill="rgb(0, 0, 0)"></rect><rect ry="0" stroke-width="0" x="20" y="16" width="1" height="1" fill-opacity="1" fill="rgb(0, 0, 0)"></rect></g><g><rect ry="0" stroke-width="0" x="8" y="17" width="1" height="1" fill-opacity="1" fill="rgb(255, 255, 255)"></rect><rect ry="0" stroke-width="0" x="9" y="17" width="1" height="1" fill-opacity="1" fill="rgb(255, 255, 255)"></rect><rect ry="0" stroke-width="0" x="10" y="17" width="1" height="1" fill-opacity="1" fill="rgb(0, 0, 0)"></rect><rect ry="0" stroke-width="0" x="11" y="17" width="1" height="1" fill-opacity="1" fill="rgb(255, 255, 255)"></rect><rect ry="0" stroke-width="0" x="12" y="17" width="1" height="1" fill-opacity="1" fill="rgb(255, 255, 255)"></rect><rect ry="0" stroke-width="0" x="13" y="17" width="1" height="1" fill-opacity="1" fill="rgb(255, 255, 255)"></rect><rect ry="0" stroke-width="0" x="14" y="17" width="1" height="1" fill-opacity="1" fill="rgb(0, 0, 0)"></rect><rect ry="0" stroke-width="0" x="15" y="17" width="1" height="1" fill-opacity="1" fill="rgb(0, 0, 0)"></rect><rect ry="0" stroke-width="0" x="16" y="17" width="1" height="1" fill-opacity="1" fill="rgb(255, 255, 255)"></rect><rect ry="0" stroke-width="0" x="17" y="17" width="1" height="1" fill-opacity="1" fill="rgb(255, 255, 255)"></rect><rect ry="0" stroke-width="0" x="18" y="17" width="1" height="1" fill-opacity="1" fill="rgb(255, 255, 255)"></rect><rect ry="0" stroke-width="0" x="19" y="17" width="1" height="1" fill-opacity="1" fill="rgb(0, 0, 0)"></rect><rect ry="0" stroke-width="0" x="20" y="17" width="1" height="1" fill-opacity="1" fill="rgb(255, 255, 255)"></rect></g><g><rect ry="0" stroke-width="0" x="8" y="18" width="1" height="1" fill-opacity="1" fill="rgb(0, 0, 0)"></rect><rect ry="0" stroke-width="0" x="9" y="18" width="1" height="1" fill-opacity="1" fill="rgb(255, 255, 255)"></rect><rect ry="0" stroke-width="0" x="10" y="18" width="1" height="1" fill-opacity="1" fill="rgb(255, 255, 255)"></rect><rect ry="0" stroke-width="0" x="11" y="18" width="1" height="1" fill-opacity="1" fill="rgb(255, 255, 255)"></rect><rect ry="0" stroke-width="0" x="12" y="18" width="1" height="1" fill-opacity="1" fill="rgb(0, 0, 0)"></rect><rect ry="0" stroke-width="0" x="13" y="18" width="1" height="1" fill-opacity="1" fill="rgb(255, 255, 255)"></rect><rect ry="0" stroke-width="0" x="14" y="18" width="1" height="1" fill-opacity="1" fill="rgb(255, 255, 255)"></rect><rect ry="0" stroke-width="0" x="15" y="18" width="1" height="1" fill-opacity="1" fill="rgb(0, 0, 0)"></rect><rect ry="0" stroke-width="0" x="16" y="18" width="1" height="1" fill-opacity="1" fill="rgb(255, 255, 255)"></rect><rect ry="0" stroke-width="0" x="17" y="18" width="1" height="1" fill-opacity="1" fill="rgb(255, 255, 255)"></rect><rect ry="0" stroke-width="0" x="18" y="18" width="1" height="1" fill-opacity="1" fill="rgb(0, 0, 0)"></rect><rect ry="0" stroke-width="0" x="19" y="18" width="1" height="1" fill-opacity="1" fill="rgb(255, 255, 255)"></rect><rect ry="0" stroke-width="0" x="20" y="18" width="1" height="1" fill-opacity="1" fill="rgb(0, 0, 0)"></rect></g><g><rect ry="0" stroke-width="0" x="8" y="19" width="1" height="1" fill-opacity="1" fill="rgb(0, 0, 0)"></rect><rect ry="0" stroke-width="0" x="9" y="19" width="1" height="1" fill-opacity="1" fill="rgb(0, 0, 0)"></rect><rect ry="0" stroke-width="0" x="10" y="19" width="1" height="1" fill-opacity="1" fill="rgb(0, 0, 0)"></rect><rect ry="0" stroke-width="0" x="11" y="19" width="1" height="1" fill-opacity="1" fill="rgb(255, 255, 255)"></rect><rect ry="0" stroke-width="0" x="12" y="19" width="1" height="1" fill-opacity="1" fill="rgb(255, 255, 255)"></rect><rect ry="0" stroke-width="0" x="13" y="19" width="1" height="1" fill-opacity="1" fill="rgb(255, 255, 255)"></rect><rect ry="0" stroke-width="0" x="14" y="19" width="1" height="1" fill-opacity="1" fill="rgb(0, 0, 0)"></rect><rect ry="0" stroke-width="0" x="15" y="19" width="1" height="1" fill-opacity="1" fill="rgb(255, 255, 255)"></rect><rect ry="0" stroke-width="0" x="16" y="19" width="1" height="1" fill-opacity="1" fill="rgb(255, 255, 255)"></rect><rect ry="0" stroke-width="0" x="17" y="19" width="1" height="1" fill-opacity="1" fill="rgb(0, 0, 0)"></rect><rect ry="0" stroke-width="0" x="18" y="19" width="1" height="1" fill-opacity="1" fill="rgb(0, 0, 0)"></rect><rect ry="0" stroke-width="0" x="19" y="19" width="1" height="1" fill-opacity="1" fill="rgb(0, 0, 0)"></rect><rect ry="0" stroke-width="0" x="20" y="19" width="1" height="1" fill-opacity="1" fill="rgb(0, 0, 0)"></rect></g><g><rect ry="0" stroke-width="0" x="8" y="20" width="1" height="1" fill-opacity="1" fill="rgb(0, 0, 0)"></rect><rect ry="0" stroke-width="0" x="9" y="20" width="1" height="1" fill-opacity="1" fill="rgb(255, 255, 255)"></rect><rect ry="0" stroke-width="0" x="10" y="20" width="1" height="1" fill-opacity="1" fill="rgb(255, 255, 255)"></rect><rect ry="0" stroke-width="0" x="11" y="20" width="1" height="1" fill-opacity="1" fill="rgb(255, 255, 255)"></rect><rect ry="0" stroke-width="0" x="12" y="20" width="1" height="1" fill-opacity="1" fill="rgb(0, 0, 0)"></rect><rect ry="0" stroke-width="0" x="13" y="20" width="1" height="1" fill-opacity="1" fill="rgb(255, 255, 255)"></rect><rect ry="0" stroke-width="0" x="14" y="20" width="1" height="1" fill-opacity="1" fill="rgb(0, 0, 0)"></rect><rect ry="0" stroke-width="0" x="15" y="20" width="1" height="1" fill-opacity="1" fill="rgb(0, 0, 0)"></rect><rect ry="0" stroke-width="0" x="16" y="20" width="1" height="1" fill-opacity="1" fill="rgb(0, 0, 0)"></rect><rect ry="0" stroke-width="0" x="17" y="20" width="1" height="1" fill-opacity="1" fill="rgb(255, 255, 255)"></rect><rect ry="0" stroke-width="0" x="18" y="20" width="1" height="1" fill-opacity="1" fill="rgb(0, 0, 0)"></rect><rect ry="0" stroke-width="0" x="19" y="20" width="1" height="1" fill-opacity="1" fill="rgb(255, 255, 255)"></rect><rect ry="0" stroke-width="0" x="20" y="20" width="1" height="1" fill-opacity="1" fill="rgb(0, 0, 0)"></rect></g></g><g><path d="M-1,-1h9a0,0 0 0 1 0,0v9a0,0 0 0 1 0,0h-9a0,0 0 0 1 0,0v-9a0,0 0 0 1 0,0zM0,0h7a0,0 0 0 1 0,0v7a0,0 0 0 1 0,0h-7a0,0 0 0 1 0,0v-7a0,0 0 0 1 0,0z" fill-rule="evenodd" fill-opacity="1" fill="rgb(255, 255, 255)"></path><path d="M0,0h7a0,0 0 0 1 0,0v7a0,0 0 0 1 0,0h-7a0,0 0 0 1 0,0v-7a0,0 0 0 1 0,0zM1,1h5a0,0 0 0 1 0,0v5a0,0 0 0 1 0,0h-5a0,0 0 0 1 0,0v-5a0,0 0 0 1 0,0z" fill-rule="evenodd" fill-opacity="1" fill="rgb(0, 0, 0)"></path><path d="M1,1h5a0,0 0 0 1 0,0v5a0,0 0 0 1 0,0h-5a0,0 0 0 1 0,0v-5a0,0 0 0 1 0,0zM2,2h3a0,0 0 0 1 0,0v3a0,0 0 0 1 0,0h-3a0,0 0 0 1 0,0v-3a0,0 0 0 1 0,0z" fill-rule="evenodd" fill-opacity="1" fill="rgb(255, 255, 255)"></path><rect x="2" y="2" fill-opacity="1" fill="rgb(0, 0, 0)" width="3" height="3" ry="0"></rect></g><g><path d="M13,-1h9a0,0 0 0 1 0,0v9a0,0 0 0 1 0,0h-9a0,0 0 0 1 0,0v-9a0,0 0 0 1 0,0zM14,0h7a0,0 0 0 1 0,0v7a0,0 0 0 1 0,0h-7a0,0 0 0 1 0,0v-7a0,0 0 0 1 0,0z" fill-rule="evenodd" fill-opacity="1" fill="rgb(255, 255, 255)"></path><path d="M14,0h7a0,0 0 0 1 0,0v7a0,0 0 0 1 0,0h-7a0,0 0 0 1 0,0v-7a0,0 0 0 1 0,0zM15,1h5a0,0 0 0 1 0,0v5a0,0 0 0 1 0,0h-5a0,0 0 0 1 0,0v-5a0,0 0 0 1 0,0z" fill-rule="evenodd" fill-opacity="1" fill="rgb(0, 0, 0)"></path><path d="M15,1h5a0,0 0 0 1 0,0v5a0,0 0 0 1 0,0h-5a0,0 0 0 1 0,0v-5a0,0 0 0 1 0,0zM16,2h3a0,0 0 0 1 0,0v3a0,0 0 0 1 0,0h-3a0,0 0 0 1 0,0v-3a0,0 0 0 1 0,0z" fill-rule="evenodd" fill-opacity="1" fill="rgb(255, 255, 255)"></path><rect x="16" y="2" fill-opacity="1" fill="rgb(0, 0, 0)" width="3" height="3" ry="0"></rect></g><g><path d="M-1,13h9a0,0 0 0 1 0,0v9a0,0 0 0 1 0,0h-9a0,0 0 0 1 0,0v-9a0,0 0 0 1 0,0zM0,14h7a0,0 0 0 1 0,0v7a0,0 0 0 1 0,0h-7a0,0 0 0 1 0,0v-7a0,0 0 0 1 0,0z" fill-rule="evenodd" fill-opacity="1" fill="rgb(255, 255, 255)"></path><path d="M0,14h7a0,0 0 0 1 0,0v7a0,0 0 0 1 0,0h-7a0,0 0 0 1 0,0v-7a0,0 0 0 1 0,0zM1,15h5a0,0 0 0 1 0,0v5a0,0 0 0 1 0,0h-5a0,0 0 0 1 0,0v-5a0,0 0 0 1 0,0z" fill-rule="evenodd" fill-opacity="1" fill="rgb(0, 0, 0)"></path><path d="M1,15h5a0,0 0 0 1 0,0v5a0,0 0 0 1 0,0h-5a0,0 0 0 1 0,0v-5a0,0 0 0 1 0,0zM2,16h3a0,0 0 0 1 0,0v3a0,0 0 0 1 0,0h-3a0,0 0 0 1 0,0v-3a0,0 0 0 1 0,0z" fill-rule="evenodd" fill-opacity="1" fill="rgb(255, 255, 255)"></path><rect x="2" y="16" fill-opacity="1" fill="rgb(0, 0, 0)" width="3" height="3" ry="0"></rect></g></g></svg>