<svg id="setting" xmlns="http://www.w3.org/2000/svg" width="34" height="34" viewBox="0 0 34 34">
  <circle id="Ellipse_1" data-name="Ellipse 1" cx="17" cy="17" r="17" fill="#ebf5ff"/>
  <path id="Path_1" data-name="Path 1" d="M24.567,15.169c-.315-.066-.627-.157-.943-.2-.187-.029-.232-.144-.32-.28a1.092,1.092,0,0,1,.164-1.465,1.858,1.858,0,0,0,.188-.286.485.485,0,0,0-.065-.654q-.936-.942-1.879-1.877a.478.478,0,0,0-.653-.053,1.888,1.888,0,0,0-.286.189,1.116,1.116,0,0,1-1.523.129c-.1-.065-.176-.108-.2-.241-.064-.347-.148-.69-.23-1.035A.464.464,0,0,0,18.328,9Q17,9,15.672,9a.463.463,0,0,0-.491.392c-.072.314-.151.627-.206.944-.034.2-.147.266-.31.368a1.052,1.052,0,0,1-1.412-.153,2.251,2.251,0,0,0-.313-.2.49.49,0,0,0-.676.077L10.43,12.257a.5.5,0,0,0-.066.7,2.251,2.251,0,0,0,.17.261,1.067,1.067,0,0,1,.156,1.461.132.132,0,0,0-.009.03.3.3,0,0,1-.274.245c-.3.046-.589.123-.884.189-.41.093-.519.228-.52.644q0,1.22,0,2.437c0,.4.112.535.505.625.284.066.567.139.854.183.192.028.247.146.342.3a1.065,1.065,0,0,1-.16,1.438,2.607,2.607,0,0,0-.171.261.506.506,0,0,0,.069.727q.907.9,1.811,1.812a.514.514,0,0,0,.729.062c.267-.181.544-.346.812-.525a.293.293,0,0,1,.34-.027,4.559,4.559,0,0,0,.6.251.3.3,0,0,1,.22.262c.057.327.146.648.214.975a.5.5,0,0,0,.551.438c.427,0,.854,0,1.281,0s.854,0,1.28,0a.5.5,0,0,0,.551-.439,1.725,1.725,0,0,0,.064-.305,1.144,1.144,0,0,1,.975-1.186.361.361,0,0,1,.338.03c.283.194.574.376.865.56a.468.468,0,0,0,.629-.054q.955-.945,1.9-1.9a.471.471,0,0,0,.062-.628,1.443,1.443,0,0,0-.188-.286,1.125,1.125,0,0,1-.155-1.522c.068-.111.109-.2.26-.223.316-.053.63-.131.943-.207.361-.088.474-.226.475-.585,0-.843,0-1.687,0-2.53A.5.5,0,0,0,24.567,15.169ZM17,19.869a2.869,2.869,0,1,1,2.869-2.854A2.885,2.885,0,0,1,17,19.869Z" fill="#00a3e0" fill-rule="evenodd"/>
</svg>
