<svg xmlns="http://www.w3.org/2000/svg" width="21.333" height="22.005" viewBox="0 0 21.333 22.005">
  <g id="Group_12378" data-name="Group 12378" transform="translate(-111.885 -229.642)">
    <path id="Path_3995" data-name="Path 3995" d="M120.4,251.647c-.017-.067-.082-.049-.124-.062a1.723,1.723,0,0,1-1.247-1.463c-.059-.353-.115-.706-.175-1.058a1.282,1.282,0,0,0-1.705-1.022c-.365.124-.722.27-1.084.4a1.705,1.705,0,0,1-2.158-.771q-.89-1.527-1.769-3.062a1.7,1.7,0,0,1,.39-2.224c.289-.246.588-.48.877-.725a1.283,1.283,0,0,0,0-2.031c-.295-.25-.6-.488-.893-.74a1.688,1.688,0,0,1-.394-2.172q.892-1.576,1.811-3.137a1.7,1.7,0,0,1,2.118-.741c.355.129.706.272,1.062.4a1.286,1.286,0,0,0,1.748-1.032c.069-.4.129-.805.21-1.2a1.683,1.683,0,0,1,1.634-1.354q1.847-.014,3.7,0a1.713,1.713,0,0,1,1.673,1.521q.084.529.175,1.058a1.282,1.282,0,0,0,1.7,1.023c.365-.123.722-.269,1.084-.4a1.7,1.7,0,0,1,2.159.77q.891,1.527,1.768,3.062a1.7,1.7,0,0,1-.4,2.238c-.284.241-.577.471-.861.712a1.282,1.282,0,0,0,0,2.03c.294.25.6.488.893.74a1.688,1.688,0,0,1,.395,2.172q-.9,1.586-1.823,3.154a1.682,1.682,0,0,1-2.044.742c-.365-.124-.723-.267-1.085-.4a1.281,1.281,0,0,0-1.791,1.035c-.058.338-.115.677-.17,1.015a1.7,1.7,0,0,1-1.438,1.492c-.008,0-.013.022-.02.033Zm11.085-7.921c-.038-.035-.073-.068-.111-.1-.254-.209-.51-.417-.763-.627a3.006,3.006,0,0,1,0-4.708c.259-.214.517-.431.781-.639a.121.121,0,0,0,.037-.191q-.846-1.454-1.684-2.912c-.049-.085-.09-.1-.186-.065-.3.121-.6.229-.9.341a3.007,3.007,0,0,1-4.07-2.106c-.092-.389-.139-.788-.2-1.183-.019-.119-.053-.177-.2-.176q-1.643.012-3.286,0c-.148,0-.179.061-.2.178-.043.29-.095.578-.138.868a3.011,3.011,0,0,1-3.666,2.562,10.963,10.963,0,0,1-1.331-.472c-.11-.04-.172-.045-.239.071q-.823,1.443-1.659,2.877c-.062.106-.041.154.046.223.259.2.511.415.765.625a3.007,3.007,0,0,1,0,4.709c-.259.214-.517.431-.781.639-.079.062-.084.106-.035.191q.84,1.445,1.67,2.9c.059.1.111.117.22.074.325-.13.654-.247.983-.367a3,3,0,0,1,3.924,1.974,10.486,10.486,0,0,1,.24,1.328c.022.138.06.2.225.2q1.622-.016,3.243,0c.172,0,.2-.072.22-.2.055-.353.112-.706.176-1.058a3,3,0,0,1,3.541-2.368,11.091,11.091,0,0,1,1.414.489c.111.04.172.046.239-.071.548-.962,1.1-1.92,1.656-2.879C131.443,243.808,131.463,243.771,131.488,243.726Z" fill="#00a3e0"/>
    <path id="Path_3996" data-name="Path 3996" d="M227.989,355.86a4.243,4.243,0,1,1,4.242-4.233A4.26,4.26,0,0,1,227.989,355.86Zm.031-6.767a2.524,2.524,0,1,0,2.492,2.56A2.542,2.542,0,0,0,228.019,349.093Z" transform="translate(-105.437 -110.971)" fill="#00a3e0"/>
  </g>
</svg>
