<?xml version="1.0" encoding="utf-8"?>
<!-- Generator: Adobe Illustrator 16.0.0, SVG Export Plug-In . SVG Version: 6.00 Build 0)  -->
<!DOCTYPE svg PUBLIC "-//W3C//DTD SVG 1.1//EN" "http://www.w3.org/Graphics/SVG/1.1/DTD/svg11.dtd">
<svg version="1.1" id="Layer_1" xmlns="http://www.w3.org/2000/svg" xmlns:xlink="http://www.w3.org/1999/xlink" x="0px" y="0px"
	 width="80px" height="80px" viewBox="0 0 80 80" enable-background="new 0 0 80 80" xml:space="preserve">
<g>
	<path fill-rule="evenodd" clip-rule="evenodd" fill="#EFEFEF" d="M40.769,80c-9.848-0.004-19.644-0.063-29.541-0.063
		c-4.747,0-6.829-1.669-5.808-6.488c0.106-0.505,0.14-1.026,0.218-1.539C7.99,56.325,21.504,46.521,40.51,46.612
		c18.387,0.089,31.594,10.113,34.061,25.417c0.913,5.669-0.366,7.954-6.597,7.954C58.875,79.983,49.838,80.003,40.769,80z"/>
	<path fill-rule="evenodd" clip-rule="evenodd" fill="#EFEFEF" d="M60.989,21.169c-0.052,11.387-9.247,20.62-20.673,20.753
		c-11.753,0.137-21.269-9.297-21.185-21.008c0.081-11.31,9.387-20.729,20.663-20.913C51.29-0.186,61.041,9.552,60.989,21.169z"/>
</g>
</svg>
