<svg id="iconfinder_5740101_buy_discount_ecommerce_sale_shop_icon" xmlns="http://www.w3.org/2000/svg" width="35.53" height="35.45" viewBox="0 0 35.53 35.45">
  <path id="Path_3898" data-name="Path 3898" d="M35.575,16.457l-3.311-3.311v-4.7a3.23,3.23,0,0,0-3.23-3.23H24.351l-3.311-3.23a3.23,3.23,0,0,0-4.554,0L13.176,5.234h-4.7a3.23,3.23,0,0,0-3.23,3.23v4.683l-3.23,3.311a3.143,3.143,0,0,0-.081,4.554l3.327,3.311v4.7a3.23,3.23,0,0,0,3.23,3.23h4.683l3.311,3.311a3.236,3.236,0,0,0,4.554,0l3.311-3.327h4.7A3.23,3.23,0,0,0,32.281,29V24.322l3.311-3.311a3.23,3.23,0,0,0,0-4.554ZM29.035,23V29H23.027l-4.263,4.263L14.5,29H8.493V23L4.23,18.734l4.263-4.263V8.463H14.5L18.764,4.2l4.263,4.263h6.007v6.007L33.3,18.734Z" transform="translate(-1 -1.048)" fill="#062642"/>
  <path id="Path_3899" data-name="Path 3899" d="M18.077,8.065,8.388,19.37a1.615,1.615,0,1,0,2.455,2.1l9.689-11.3a1.615,1.615,0,0,0-2.455-2.1Z" transform="translate(3.304 2.919)" fill="#062642"/>
  <path id="Path_3900" data-name="Path 3900" d="M12.078,12.258a2.422,2.422,0,1,0-2.988-1.615A2.422,2.422,0,0,0,12.078,12.258Z" transform="translate(3.909 2.924)" fill="#062642"/>
  <path id="Path_3901" data-name="Path 3901" d="M13.766,13.585A2.422,2.422,0,1,0,16.754,15.2a2.422,2.422,0,0,0-2.988-1.615Z" transform="translate(5.774 6.604)" fill="#062642"/>
</svg>
