<svg id="comp_x5F_2-Microsoft_Access" xmlns="http://www.w3.org/2000/svg" width="41.555" height="39.065" viewBox="0 0 41.555 39.065">
  <g id="Group_2163" data-name="Group 2163">
    <path id="Path_3044" data-name="Path 3044" d="M134.075,217.007h3.849L136,211.7Z" transform="translate(-124.312 -196.171)" fill="#062642"/>
    <path id="Path_3045" data-name="Path 3045" d="M54.57,42.389a32.622,32.622,0,0,0-5.195.394v-1.7a1.3,1.3,0,0,0-.47-1,1.273,1.273,0,0,0-1.068-.276L27.061,43.714A1.3,1.3,0,0,0,26,44.992V73.639a1.3,1.3,0,0,0,1.06,1.279l20.778,3.906a1.239,1.239,0,0,0,.239.023,1.3,1.3,0,0,0,1.3-1.3v-1.7a32.64,32.64,0,0,0,5.195.4c6.254,0,12.986-1.63,12.986-5.208V47.6C67.556,44.018,60.824,42.389,54.57,42.389ZM43.327,67.05a1.328,1.328,0,0,1-.445.078,1.294,1.294,0,0,1-1.217-.857l-1.107-3.05H34.821l-1.1,3.05a1.3,1.3,0,1,1-2.442-.891L36.47,51.058a1.347,1.347,0,0,1,2.438,0l5.2,14.323A1.3,1.3,0,0,1,43.327,67.05Zm21.632,3.985c0,.67-3.571,2.6-10.389,2.6a29.329,29.329,0,0,1-5.195-.432V68.035a32.648,32.648,0,0,0,5.195.4c3.841,0,7.857-.617,10.389-1.922Zm0-7.813c0,.67-3.571,2.6-10.389,2.6a29.339,29.339,0,0,1-5.195-.432V60.224a32.641,32.641,0,0,0,5.195.394c3.841,0,7.857-.618,10.389-1.922Zm0-7.812c0,.669-3.571,2.6-10.389,2.6a29.213,29.213,0,0,1-5.195-.434V52.411a32.619,32.619,0,0,0,5.195.395c3.841,0,7.857-.617,10.389-1.922ZM54.57,50.2a29.213,29.213,0,0,1-5.195-.434V45.426a29.235,29.235,0,0,1,5.195-.434c6.818,0,10.389,1.935,10.389,2.6S61.388,50.2,54.57,50.2Z" transform="translate(-26.001 -39.782)" fill="#062642"/>
  </g>
</svg>
