<svg xmlns="http://www.w3.org/2000/svg" width="50.955" height="39.58" viewBox="0 0 50.955 39.58">
  <g id="refund" transform="translate(517.089 -263.29)">
    <path id="Path_3962" data-name="Path 3962" d="M-359.024,283.609c0,.808-.014,1.616.005,2.423a.886.886,0,0,1-.546.953.94.94,0,0,1-1.067-.3q-2.794-2.807-5.6-5.6-2.555-2.551-5.11-5.1c-.615-.615-.614-1.016,0-1.634q5.319-5.313,10.637-10.627a1.007,1.007,0,0,1,1.143-.369c.474.186.547.6.542,1.064-.016,1.525.022,3.052-.022,4.576-.014.5.184.612.613.681a28.073,28.073,0,0,1,7.579,2.275,15.264,15.264,0,0,1,7.623,7.129,15.259,15.259,0,0,1,1.391,8.1,25.975,25.975,0,0,1-1.719,7.168,1.045,1.045,0,0,1-.515.652.874.874,0,0,1-1.246-.687,18.74,18.74,0,0,0-8.567-12.118,8.871,8.871,0,0,0-4.662-1.457c-.418-.011-.507.112-.491.5C-359,282.029-359.024,282.819-359.024,283.609Z" transform="translate(-124.367)" fill="#062642"/>
    <path id="Path_3963" data-name="Path 3963" d="M-493.668,361.883h-15.941c-1.137,0-1.225.073-1.426,1.186a1.787,1.787,0,0,1-1.519,1.4c-.823.087-1.058.342-1.058,1.167q0,5.736,0,11.471c0,.817.238,1.07,1.067,1.158a1.752,1.752,0,0,1,1.519,1.512c.094.849.341,1.07,1.21,1.07h33.832c.9,0,1.12-.2,1.232-1.1a1.762,1.762,0,0,1,1.551-1.479c.774-.074,1.031-.353,1.033-1.137,0-1.233,0-2.465.038-3.7a6.347,6.347,0,0,1,.713,2.261,2.6,2.6,0,0,0,2.438,2.559c.256.044.269.141.268.338-.006,1.113.019,2.227-.011,3.339a2.563,2.563,0,0,1-2.367,2.372c-.162.008-.324,0-.486,0q-21.314,0-42.628.022a2.81,2.81,0,0,1-2.887-2.879c.054-6.731.022-13.464.023-20.2a2.578,2.578,0,0,1,2.812-2.8q8.337,0,16.673-.008a1.006,1.006,0,0,1,.8.331C-495.784,359.782-494.765,360.787-493.668,361.883Z" transform="translate(0 -81.441)" fill="#062642"/>
    <path id="Path_3964" data-name="Path 3964" d="M-460.03,395.444a3.534,3.534,0,0,1-1.107-.133,6.628,6.628,0,0,0-7.582,5.358,6.719,6.719,0,0,0,5.875,8.277,6.674,6.674,0,0,0,7.611-5.4,6.917,6.917,0,0,0,0-2.831c-.034-.172-.065-.345-.114-.607a3.156,3.156,0,0,0,1.73.836,2.576,2.576,0,0,0,2.85-2.6c.016-.592,0-1.185,0-1.777s0-1.183,0-1.8a4.46,4.46,0,0,1,1.673.608,18.726,18.726,0,0,1,5.98,5.491.761.761,0,0,1,.118.506c0,1.885-.007,3.769.008,5.654,0,.3-.093.417-.379.526a3.094,3.094,0,0,0-1.9,1.853c-.156.431-.394.485-.789.485q-15.62-.014-31.239-.007c-.288,0-.576-.011-.863,0a.393.393,0,0,1-.468-.307,3.272,3.272,0,0,0-2.059-2.051c-.271-.1-.3-.234-.3-.47q.007-4.927,0-9.854a.436.436,0,0,1,.349-.492,3.285,3.285,0,0,0,2.013-2.031.4.4,0,0,1,.463-.314q8.417.008,16.833,0a.54.54,0,0,1,.477.181c.254.314.628.521.806.9Zm-11.453,6.667a2.624,2.624,0,0,0-2.58-2.565,2.623,2.623,0,0,0-2.6,2.6,2.626,2.626,0,0,0,2.579,2.566A2.625,2.625,0,0,0-471.483,402.11Zm25.041.044a2.625,2.625,0,0,0-2.536-2.608,2.625,2.625,0,0,0-2.64,2.557,2.625,2.625,0,0,0,2.589,2.609A2.626,2.626,0,0,0-446.442,402.154Z" transform="translate(-30.907 -112.208)" fill="#062642"/>
    <path id="Path_3965" data-name="Path 3965" d="M-366.7,416.78c0,.566.016,1.08-.005,1.592-.016.39.313.29.487.343a2.3,2.3,0,0,1,1.776,2.723,2.258,2.258,0,0,1-1.827,1.824c-.325.08-.5.2-.434.562.075.412-.164.541-.53.539s-.595-.125-.541-.54c.039-.3-.029-.433-.4-.5a2.316,2.316,0,0,1-1.885-2.4c.01-.35.137-.495.484-.462a1.915,1.915,0,0,0,.431,0c.395-.053.536.127.576.506.072.67.165.769.789,1.025,0-.645-.008-1.259,0-1.874.005-.242-.172-.237-.316-.281a2.2,2.2,0,0,1-1.766-2.2,2.189,2.189,0,0,1,1.737-2.165c.226-.064.373-.12.351-.411-.028-.377.272-.417.554-.413.265,0,.544.056.5.4s.164.358.4.416a2.135,2.135,0,0,1,1.709,1.841c.059.383-.03.6-.462.566a5.726,5.726,0,0,0-.593,0,.327.327,0,0,1-.392-.333A.869.869,0,0,0-366.7,416.78Zm0,4.312a1.561,1.561,0,0,0,0,.267c.037.213-.126.58.1.61.331.043.569-.257.651-.595a.923.923,0,0,0-.269-.977c-.116-.1-.253-.248-.417-.174s-.055.255-.069.387A4.792,4.792,0,0,0-366.7,421.093Zm-1.113-2.693v-1.652c-.4.2-.626.44-.619.847A.828.828,0,0,0-367.816,418.4Z" transform="translate(-125.863 -129.566)" fill="#062642"/>
    <path id="Path_3966" data-name="Path 3966" d="M-335.529,401.844l.077.032-.061.03c0-.024,0-.048,0-.072Z" transform="translate(-155.421 -118.598)" fill="#062642"/>
  </g>
</svg>
