<svg xmlns="http://www.w3.org/2000/svg" width="41.999" height="50.051" viewBox="0 0 41.999 50.051">
  <g id="reward" transform="translate(315.128 -559.021)">
    <g id="Group_12389" data-name="Group 12389" transform="translate(-309.283 559.021)">
      <path id="Path_4010" data-name="Path 4010" d="M-269.021,573a.951.951,0,0,1-.929.466q-5.281-.012-10.561,0c-.3,0-.35-.088-.348-.362.013-1.711,0-3.422.014-5.133,0-.289-.09-.289-.306-.216a4.108,4.108,0,0,1-.706.194c-.236.035-.295.136-.293.366.01,1.593,0,3.186.013,4.779,0,.3-.066.377-.369.372-1.111-.021-2.222-.015-3.334,0-.225,0-.279-.062-.278-.281.009-1.622,0-3.245.01-4.867,0-.23-.057-.331-.293-.366a4.088,4.088,0,0,1-.707-.194c-.216-.073-.309-.073-.306.216.015,1.711,0,3.422.014,5.133,0,.274-.05.363-.348.362-3.52-.012-7.041-.008-10.561-.008-.71,0-.928-.219-.928-.928q0-2.4,0-4.809c0-.616.237-.857.85-.857h8.909l.025-.045c-.094-.051-.188-.1-.281-.153a7.187,7.187,0,0,1-2.024-1.549,3.535,3.535,0,0,1-.7-3.629,3.449,3.449,0,0,1,2.776-2.394,3.625,3.625,0,0,1,3.478,1.131,9.93,9.93,0,0,1,1.936,3.234c.038.1.08.19.147.351a16.575,16.575,0,0,1,.759-1.7,8.252,8.252,0,0,1,1.311-1.876,3.63,3.63,0,0,1,3.761-1.072,3.445,3.445,0,0,1,2.631,2.8,3.558,3.558,0,0,1-1.113,3.451,10.9,10.9,0,0,1-2.017,1.454h.3c2.842,0,5.684,0,8.526-.006a.941.941,0,0,1,.947.473Zm-7.9-10.319a2.367,2.367,0,0,0-2.678-2.332,2.555,2.555,0,0,0-1.707,1.041,10.79,10.79,0,0,0-2.143,5.232c-.033.237.035.264.233.239a10.1,10.1,0,0,0,1.86-.415,9.6,9.6,0,0,0,3.639-1.967A2.335,2.335,0,0,0-276.92,562.686Zm-12.138-2.367a4.9,4.9,0,0,0-.525.1,2.262,2.262,0,0,0-1.7,1.8,2.28,2.28,0,0,0,.741,2.264,9.717,9.717,0,0,0,3.862,2.037,9.67,9.67,0,0,0,1.635.348c.186.023.27.014.241-.234a10.1,10.1,0,0,0-.451-1.97,9.446,9.446,0,0,0-1.947-3.55A2.474,2.474,0,0,0-289.058,560.319Z" transform="translate(299.237 -559.021)" fill="#062642"/>
      <path id="Path_4011" data-name="Path 4011" d="M-263.618,616.276c.052-.072.021-.153.021-.228q0-6.949-.006-13.9c0-.287.07-.357.354-.352,1.1.018,2.2.016,3.3,0,.259,0,.324.059.324.321q-.013,6.949,0,13.9c0,.086-.032.176.021.258h-.118c-.066-.086-.16-.057-.245-.057q-1.644,0-3.288,0c-.084,0-.179-.028-.245.057Z" transform="translate(276.719 -586.063)" fill="#062642"/>
      <path id="Path_4012" data-name="Path 4012" d="M-284.223,641l-.006.057h-9.914a.031.031,0,0,1-.021-.045c.068,0,.137-.013.205-.013Z" transform="translate(296.032 -610.847)" fill="#062642"/>
      <path id="Path_4013" data-name="Path 4013" d="M-249.189,641.059-249.2,641h9.736c.068,0,.137.008.205.013a.031.031,0,0,1-.021.045Z" transform="translate(267.602 -610.847)" fill="#062642"/>
      <path id="Path_4014" data-name="Path 4014" d="M-263.3,641.053c.065-.086.16-.057.245-.057q1.644,0,3.288,0c.084,0,.179-.028.245.057Z" transform="translate(276.516 -610.841)" fill="#062642"/>
      <path id="Path_4015" data-name="Path 4015" d="M-285.2,616.221h-9.736c-.068,0-.137.008-.205.013a.633.633,0,0,1-.561-.618,2.454,2.454,0,0,1,0-.265q0-6.609-.007-13.217c0-.278.079-.331.339-.33q4.942.013,9.883,0c.261,0,.319.063.319.321q-.013,6.9-.007,13.807C-285.18,616.026-285.193,616.124-285.2,616.221Z" transform="translate(297.01 -586.066)" fill="#062642"/>
      <path id="Path_4016" data-name="Path 4016" d="M-239.3,616.233c-.068,0-.137-.013-.205-.013h-9.736c-.007-.1-.021-.195-.021-.292q0-6.9-.007-13.807c0-.257.058-.322.319-.321q4.957.015,9.913,0c.239,0,.31.047.309.3q-.013,6.653-.007,13.306C-238.737,615.919-238.893,616.146-239.3,616.233Z" transform="translate(267.65 -586.066)" fill="#062642"/>
    </g>
    <g id="Group_12390" data-name="Group 12390" transform="translate(-315.128 591.338)">
      <path id="Path_4017" data-name="Path 4017" d="M-275.8,654.917a9.3,9.3,0,0,1,2.605-.522,2.475,2.475,0,0,1,2.478,1.3,2.254,2.254,0,0,1-.606,2.617,14.841,14.841,0,0,1-3.482,2.738,116.084,116.084,0,0,1-12.776,6.872,14.19,14.19,0,0,1-12.928-.24c-2.077-1.041-4.059-2.362-6.446-2.671-1.012-.131-2.023-.274-3.038-.375-.554-.056-1.023-.217-.978-.851.046-.65.553-.725,1.1-.679a17.9,17.9,0,0,1,7.936,2.152c.815.49,1.7.861,2.564,1.272a12.106,12.106,0,0,0,10.5.276,92.277,92.277,0,0,0,14.882-8.14,6.567,6.567,0,0,0,1.608-1.452c.2-.258.448-.525.245-.886a.925.925,0,0,0-.847-.412,5.113,5.113,0,0,0-1.935.33,64.305,64.305,0,0,0-8.372,3.991,9.869,9.869,0,0,1-1.159.55.688.688,0,0,1-.893-.415.674.674,0,0,1,.239-.874,2.321,2.321,0,0,1,.422-.255c2.7-1.368,5.329-2.884,8.13-4.054A1.012,1.012,0,0,0-275.8,654.917Z" transform="translate(312.5 -651.631)" fill="#062642"/>
      <path id="Path_4018" data-name="Path 4018" d="M-305.1,646.883a8.331,8.331,0,0,1,4.873,1.427,46.49,46.49,0,0,0,6.412,3.486,15.277,15.277,0,0,1,4.245,2.859,8.464,8.464,0,0,1,.863.95,2.647,2.647,0,0,1,.4,3.118,2.426,2.426,0,0,1-2.79.959,42.538,42.538,0,0,1-6.209-1.961,26.409,26.409,0,0,0-5.942-1.428c-.56-.056-1.119-.163-.994-.906.122-.727.717-.647,1.252-.594a28.359,28.359,0,0,1,6.878,1.742,40.114,40.114,0,0,0,4.789,1.55c.574.131,1.315.45,1.717-.237.388-.664-.168-1.191-.581-1.643a14.7,14.7,0,0,0-5.127-3.45,26.248,26.248,0,0,1-5.016-2.744c-2.772-2.013-5.726-1.847-8.766-.82a36.263,36.263,0,0,1-4.77,1.272c-.543.1-1.136.166-1.254-.556-.113-.7.416-.847.991-.937,2.286-.359,4.417-1.317,6.679-1.77C-306.671,647.045-305.88,646.986-305.1,646.883Z" transform="translate(315.128 -646.88)" fill="#062642"/>
      <path id="Path_4019" data-name="Path 4019" d="M-243.578,650.075a2.88,2.88,0,0,0-3.005-.09,25.209,25.209,0,0,0-4.344,2.336c-.532.329-1.046.688-1.586,1s-1.151,1.009-1.674.143c-.463-.767.331-1.085.839-1.4a48.19,48.19,0,0,1,5.42-3.163,2.984,2.984,0,0,0-2.752.347,31.759,31.759,0,0,0-3.377,2.408c-.264.2-.528.394-.789.595-.444.343-.923.484-1.284-.049-.322-.475-.053-.854.367-1.166.975-.723,1.935-1.466,2.982-2.262a1.47,1.47,0,0,0-1.871.171c-.746.594-1.429,1.267-2.147,1.9-.437.382-.938.781-1.445.182-.48-.566,0-.945.41-1.305.667-.589,1.32-1.193,1.981-1.787a3.548,3.548,0,0,1,2.236-.929c1.057-.06,1.329.191,1.352,1.324a18.754,18.754,0,0,1,2.417-1.048c1.429-.274,1.638-.181,2.239,1.155.169.376.458.129.67.059a4.858,4.858,0,0,1,3.382-.157c.651.251,1.216.6.9,1.466A1.632,1.632,0,0,1-243.578,650.075Z" transform="translate(279.293 -646.952)" fill="#062642"/>
    </g>
  </g>
</svg>
