<svg id="noun_Money_2295037" xmlns="http://www.w3.org/2000/svg" width="48.731" height="44.056" viewBox="0 0 48.731 44.056">
  <path id="Path_3903" data-name="Path 3903" d="M45.222,47.641l8.743-5.714-.976-1.189a1.126,1.126,0,0,0-1.452-.213l-8.2,5.395a4.027,4.027,0,0,1,1.884,1.721Zm.232-7.81-6.5,4.268,2.021.832,6.452-4.249-.519-.626a1.131,1.131,0,0,0-1.452-.225ZM59.2,43.116a1.951,1.951,0,0,0-2.566-.382L45.86,49.763a1.162,1.162,0,0,1-.119.069,4.108,4.108,0,0,1-5.6,3.624l-10.3-4.062a1.064,1.064,0,1,1,.782-1.978l10.3,4.055a1.97,1.97,0,1,0,1.471-3.655l-15.27-6.277A6,6,0,0,0,21.1,42.4L10.92,50.514l5.557,6.834,2.5-2.046a7.212,7.212,0,0,1,6.515-1.358L37.774,57.41a7.573,7.573,0,0,0,6.44-1.108L58.827,45.964a1.954,1.954,0,0,0,.369-2.848ZM37.568,38.88A12.62,12.62,0,1,0,24.945,26.258,12.62,12.62,0,0,0,37.568,38.88Zm-4.431-9.857a1.064,1.064,0,0,1,1.5-.163A8.643,8.643,0,0,0,36,29.73a3.765,3.765,0,0,0,1.54.476,1.431,1.431,0,0,1,.156-.013.173.173,0,0,1,.056.006c1.3-.056,1.971-.563,1.971-1.527s-.607-1.3-1.984-1.846c-.131-.056-.269-.113-.4-.163l-.257-.106c-1.364-.563-3.642-1.5-3.642-3.7,0-.889.338-2.835,3.192-3.223V18.171a1.064,1.064,0,0,1,2.128,0v1.515a7.767,7.767,0,0,1,2.8,1.383,1.064,1.064,0,1,1-1.327,1.665,4.927,4.927,0,0,0-2.535-1.045c-2.128,0-2.128.789-2.128,1.164,0,.782,1.339,1.333,2.322,1.734l.638.263c1.245.494,3.323,1.32,3.323,3.824a3.473,3.473,0,0,1-3.092,3.548V33.7a1.064,1.064,0,0,1-2.128,0V32.221a9.373,9.373,0,0,1-3.323-1.7A1.064,1.064,0,0,1,33.137,29.023Z" transform="translate(-10.92 -13.64)" fill="#062642"/>
</svg>
