<svg id="iconfinder_6598178_accounting_economy_finance_report_tax_icon" xmlns="http://www.w3.org/2000/svg" width="43.815" height="32.131" viewBox="0 0 43.815 32.131">
  <path id="Path_3896" data-name="Path 3896" d="M38.749,5H11V37.131H38.749a1.46,1.46,0,0,0,1.46-1.46V6.46A1.46,1.46,0,0,0,38.749,5Zm-13.67,5.477a1.46,1.46,0,0,1,1.329.92l2.5,6.207a1.455,1.455,0,1,1-2.7,1.081l-1.183-2.921L23.75,18.685a1.459,1.459,0,0,1-2.687-1.139l2.658-6.207A1.46,1.46,0,0,1,25.079,10.477Zm-9.537,0h4.966a1.46,1.46,0,0,1,0,2.921H19.485v4.936a1.46,1.46,0,0,1-2.921,0V13.4H15.542a1.46,1.46,0,0,1,0-2.921Zm0,12.049h8.763a1.46,1.46,0,0,1,0,2.921H15.542a1.46,1.46,0,1,1,0-2.921Zm17.526,8.763H15.542a1.46,1.46,0,1,1,0-2.921H33.068a1.46,1.46,0,1,1,0,2.921Zm3.768-14.006a1.458,1.458,0,1,1-2.351,1.723l-1.1-1.46-1.081,1.46a1.446,1.446,0,0,1-2.322-1.723l1.636-2.235L29.986,12.8a1.464,1.464,0,1,1,2.366-1.723l1.081,1.46,1.1-1.46A1.46,1.46,0,1,1,36.88,12.8l-1.636,2.249Z" transform="translate(3.605 -5)" fill="#062642"/>
  <path id="Path_3897" data-name="Path 3897" d="M1,6.46V35.67a1.46,1.46,0,0,0,1.46,1.46H12.684V5H2.46A1.46,1.46,0,0,0,1,6.46Z" transform="translate(-1 -5)" fill="#062642"/>
</svg>
