<svg id="info_2_" data-name="info (2)" xmlns="http://www.w3.org/2000/svg" width="16.012" height="16.011" viewBox="0 0 16.012 16.011">
  <g id="Group_519" data-name="Group 519">
    <g id="Group_518" data-name="Group 518" transform="translate(0 0)">
      <path id="Path_88" data-name="Path 88" d="M8.006.008a8.006,8.006,0,1,0,8.006,8.006A8.015,8.015,0,0,0,8.006.008Zm0,14.555a6.55,6.55,0,1,1,6.55-6.55A6.558,6.558,0,0,1,8.006,14.563Z" transform="translate(0 -0.008)"/>
      <path id="Path_89" data-name="Path 89" d="M150.728,130.008a.728.728,0,0,0-.728.728v4.851a.728.728,0,1,0,1.456,0v-4.851A.728.728,0,0,0,150.728,130.008Z" transform="translate(-142.722 -123.7)"/>
      <path id="Path_90" data-name="Path 90" d="M150.728,70.011a.727.727,0,1,0,.515.213A.734.734,0,0,0,150.728,70.011Z" transform="translate(-142.722 -66.614)"/>
    </g>
  </g>
</svg>
