<svg id="Group_519" data-name="Group 519" xmlns="http://www.w3.org/2000/svg" width="16.012" height="16.012" viewBox="0 0 16.012 16.012">
  <g id="Group_518" data-name="Group 518">
    <path id="Path_88" data-name="Path 88" d="M8.006.008a8.006,8.006,0,1,0,8.006,8.006A8.006,8.006,0,0,0,8.006.008Zm0,14.555a6.55,6.55,0,1,1,6.55-6.55,6.55,6.55,0,0,1-6.55,6.55Z" transform="translate(0 -0.008)" fill="#fff"/>
    <path id="Path_89" data-name="Path 89" d="M150.728,130.008a.728.728,0,0,0-.728.728v4.851a.728.728,0,1,0,1.456,0v-4.851a.728.728,0,0,0-.728-.728Z" transform="translate(-142.722 -123.7)" fill="#fff"/>
    <path id="Path_90" data-name="Path 90" d="M150.728,70.011a.727.727,0,1,0,.515.213.727.727,0,0,0-.515-.213Z" transform="translate(-142.722 -66.614)" fill="#fff"/>
  </g>
</svg>
