<svg xmlns="http://www.w3.org/2000/svg" width="29.681" height="29.668" viewBox="0 0 29.681 29.668">
  <g id="back" transform="translate(0.15 0.152)">
    <path id="Path_3960" data-name="Path 3960" d="M304.348-426.019a3.145,3.145,0,0,1,.879-.148,14.6,14.6,0,0,0,12.282-11.548,14.249,14.249,0,0,0-3.632-12.986,13.949,13.949,0,0,0-8.39-4.489,14.314,14.314,0,0,0-11.847,3.32,14.382,14.382,0,0,0-4.872,8.18,12.269,12.269,0,0,0-.252,1.756c0,.052.021.118-.056.143v2.294c.093.03.055.11.061.169a15,15,0,0,0,.6,3,14.7,14.7,0,0,0,12.306,10.214,1.362,1.362,0,0,1,.626.1ZM316.606-440.7a13.478,13.478,0,0,1-13.438,13.464,13.5,13.5,0,0,1-13.487-13.479,13.478,13.478,0,0,1,13.456-13.447A13.481,13.481,0,0,1,316.606-440.7Z" transform="translate(-288.46 455.384)" fill="#fff" stroke="#fff" stroke-width="0.3"/>
    <path id="Path_3961" data-name="Path 3961" d="M350.04-363.218h4.5c1.74,0,3.481-.005,5.221,0a3.325,3.325,0,0,1,3.3,2.656,3.337,3.337,0,0,1-2.7,3.955,4.858,4.858,0,0,1-.733.047H348.648c-.322,0-.275-.04-.279.289,0,.164.01.328,0,.491s.05.2.191.18a.452.452,0,0,1,.067,0h11.023a4.543,4.543,0,0,0,2.455-.677,4.3,4.3,0,0,0,.338-6.983,4.421,4.421,0,0,0-2.779-.913c-3.124.007-6.248,0-9.372,0h-.235l-.038-.067c.158-.143.321-.28.472-.429.471-.465.934-.938,1.408-1.4.111-.108.152-.176.009-.291-.194-.157-.342-.486-.544-.479-.181.006-.353.307-.526.48l-2.209,2.209c-.338.338-.336.565,0,.906.868.868,1.738,1.734,2.6,2.606.1.106.165.13.27,0a3.945,3.945,0,0,1,.425-.426c.109-.095.091-.149,0-.243-.6-.59-1.191-1.186-1.785-1.781C350.1-363.115,350.046-363.145,350.04-363.218Z" transform="translate(-341.743 375.662)" fill="#fff" stroke="#fff" stroke-width="0.5"/>
  </g>
</svg>
