<svg xmlns="http://www.w3.org/2000/svg" width="27.841" height="24.178" viewBox="0 0 27.841 24.178">
  <g id="KDS" transform="translate(-191.444 -447.726)">
    <path id="Path_3997" data-name="Path 3997" d="M219.144,449.722a2.928,2.928,0,0,0-2.949-1.994H195.642c-.408,0-.816-.006-1.223,0a2.892,2.892,0,0,0-2.972,2.852c0,5.835,0,9.491,0,15.327a2.651,2.651,0,0,0,.386,1.392,2.909,2.909,0,0,0,2.67,1.461q4.255-.005,8.509,0h1.128v1.647h-8.806a.749.749,0,0,0,0,1.5H215.4a.749.749,0,1,0,0-1.5H206.59v-1.648c3.2,0,6.4-.006,9.606.008a2.964,2.964,0,0,0,2.948-2c.045-.141.035-.3.141-.422V450.2A1.762,1.762,0,0,1,219.144,449.722Zm-1.026,15.953a1.757,1.757,0,0,1-1.926,1.919H194.5a1.76,1.76,0,0,1-1.831-1.31,2.266,2.266,0,0,1-.055-.593c0-5.69,0-9.2,0-14.892a1.753,1.753,0,0,1,1.912-1.9H205.37q5.451,0,10.9,0a1.738,1.738,0,0,1,1.79,1.323,2.478,2.478,0,0,1,.054.593C218.119,456.492,218.119,459.994,218.118,465.675Z" fill="#00a3e0"/>
    <path id="Path_3998" data-name="Path 3998" d="M230.717,483.724a.6.6,0,0,0,.372-.628.588.588,0,0,0-.618-.5c-.823-.005-1.648-.022-2.47.018a2.856,2.856,0,0,0-2.638,2.2,8.2,8.2,0,0,0-.077,1.638v1.341c0,.009,0,.018,0,.027a.579.579,0,0,0,.771.554.607.607,0,0,0,.394-.643c0-.724-.008-1.448,0-2.172a1.736,1.736,0,0,1,1.823-1.8c.715,0,1.43,0,2.145,0A.72.72,0,0,0,230.717,483.724Z" transform="translate(-31.379 -32.33)" fill="#00a3e0"/>
    <path id="Path_3999" data-name="Path 3999" d="M463.546,621.3v-1.339c0-.009,0-.018,0-.027a.579.579,0,0,0-.77-.556.608.608,0,0,0-.4.642c0,.715.006,1.43,0,2.145a1.743,1.743,0,0,1-1.85,1.825c-.706,0-1.412,0-2.118,0a.726.726,0,0,0-.293.034.6.6,0,0,0-.373.628.588.588,0,0,0,.617.5c.823.005,1.648.022,2.47-.018a2.861,2.861,0,0,0,2.647-2.222A8.52,8.52,0,0,0,463.546,621.3Z" transform="translate(-246.941 -159.146)" fill="#00a3e0"/>
    <g id="Group_12380" data-name="Group 12380" transform="translate(-1.294 -0.227)">
      <path id="Path_4000" data-name="Path 4000" d="M305.449,506.161q6.375-.011,12.751-.005c.368,0,.369,0,.333-.376-.011-.109-.023-.218-.044-.326a6.733,6.733,0,0,0-6.351-5.641,1.114,1.114,0,0,0,.8-1.246,1.066,1.066,0,0,0-2.087-.018,1.117,1.117,0,0,0,.786,1.266,6.734,6.734,0,0,0-6.409,6.077C305.2,506.1,305.221,506.161,305.449,506.161Zm8.222-4.988a.313.313,0,0,1,.38-.22,1.557,1.557,0,0,1,.345.133,5.937,5.937,0,0,1,3.26,3.86c.014.049.027.1.038.14a.356.356,0,0,1-.289.352.315.315,0,0,1-.382-.217c-.065-.17-.106-.349-.171-.518A5.283,5.283,0,0,0,314,501.668a1.108,1.108,0,0,1-.2-.094A.321.321,0,0,1,313.671,501.173Zm-1.686-.646h.067c.2.015.371.024.545.042a.352.352,0,1,1-.077.7,4.815,4.815,0,0,0-.546-.036c-.271,0-.439-.144-.435-.358S311.716,500.522,311.984,500.527Z" transform="translate(-105.342 -46.35)" fill="#00a3e0"/>
      <path id="Path_4001" data-name="Path 4001" d="M306.651,620.964c.134.407.271.8.39,1.195a.247.247,0,0,0,.287.206q5.331-.01,10.662,0c.381,0,.762,0,1.143,0,.11,0,.165-.022.2-.139.128-.417.273-.829.417-1.26Z" transform="translate(-106.654 -159.035)" fill="#00a3e0"/>
      <path id="Path_4002" data-name="Path 4002" d="M307.716,605.106a1.841,1.841,0,0,0,.2,0,.343.343,0,0,0,.31-.361c-.006-.231-.155-.341-.463-.341H293.2a1.373,1.373,0,0,0-.154,0,.342.342,0,0,0-.31.361c.006.225.154.341.441.341h14.535Z" transform="translate(-93.935 -143.892)" fill="#00a3e0"/>
    </g>
  </g>
</svg>
