<svg xmlns="http://www.w3.org/2000/svg" width="21.874" height="18.997" viewBox="0 0 21.874 18.997">
  <g id="KDS" transform="translate(-191.444 -447.726)">
    <path id="Path_3997" data-name="Path 3997" d="M213.207,449.295a2.3,2.3,0,0,0-2.317-1.566H194.742c-.32,0-.641,0-.961,0a2.272,2.272,0,0,0-2.335,2.241c0,4.585,0,7.457,0,12.042a2.083,2.083,0,0,0,.3,1.094,2.286,2.286,0,0,0,2.1,1.148q3.343,0,6.686,0h.886v1.294H194.5a.588.588,0,0,0,0,1.177h15.764a.588.588,0,1,0,0-1.177h-6.919v-1.3c2.516,0,5.031,0,7.547.007a2.328,2.328,0,0,0,2.316-1.573c.036-.111.028-.237.111-.331V449.67A1.385,1.385,0,0,1,213.207,449.295Zm-.806,12.534a1.381,1.381,0,0,1-1.513,1.508H193.844a1.383,1.383,0,0,1-1.439-1.029,1.78,1.78,0,0,1-.044-.466c0-4.471,0-7.229,0-11.7a1.377,1.377,0,0,1,1.5-1.5h17.088a1.366,1.366,0,0,1,1.406,1.039,1.947,1.947,0,0,1,.043.466C212.4,454.613,212.4,457.365,212.4,461.828Z" fill="#00a3e0"/>
    <path id="Path_3998" data-name="Path 3998" d="M229.552,483.481a.475.475,0,0,0,.292-.493.462.462,0,0,0-.485-.392c-.647,0-1.3-.017-1.941.014a2.244,2.244,0,0,0-2.073,1.726,6.442,6.442,0,0,0-.06,1.287v1.054c0,.007,0,.014,0,.021a.455.455,0,0,0,.606.435.477.477,0,0,0,.31-.506c0-.569-.006-1.138,0-1.707a1.364,1.364,0,0,1,1.432-1.411c.562,0,1.124,0,1.685,0A.566.566,0,0,0,229.552,483.481Z" transform="translate(-31.906 -32.873)" fill="#00a3e0"/>
    <path id="Path_3999" data-name="Path 3999" d="M462.3,620.877v-1.052c0-.007,0-.014,0-.021a.455.455,0,0,0-.605-.436.478.478,0,0,0-.31.5c0,.562,0,1.124,0,1.685a1.37,1.37,0,0,1-1.454,1.434c-.555,0-1.109,0-1.664,0a.569.569,0,0,0-.23.027.475.475,0,0,0-.293.493.462.462,0,0,0,.485.392c.647,0,1.3.018,1.941-.014a2.248,2.248,0,0,0,2.079-1.746A6.693,6.693,0,0,0,462.3,620.877Z" transform="translate(-251.088 -161.819)" fill="#00a3e0"/>
    <g id="Group_12380" data-name="Group 12380" transform="translate(196.211 450.402)">
      <path id="Path_4000" data-name="Path 4000" d="M305.4,504.349q5.009-.009,10.018,0c.289,0,.29,0,.262-.3-.008-.086-.018-.172-.034-.256a5.29,5.29,0,0,0-4.99-4.432.875.875,0,0,0,.625-.979.838.838,0,0,0-1.64-.014.878.878,0,0,0,.618.995,5.29,5.29,0,0,0-5.036,4.775C305.2,504.3,305.22,504.35,305.4,504.349Zm6.46-3.919a.246.246,0,0,1,.3-.173,1.224,1.224,0,0,1,.271.1,4.664,4.664,0,0,1,2.561,3.033c.011.038.021.077.03.11a.28.28,0,0,1-.227.276.248.248,0,0,1-.3-.171c-.051-.134-.083-.274-.134-.407a4.151,4.151,0,0,0-2.237-2.384.865.865,0,0,1-.154-.074A.252.252,0,0,1,311.859,500.43Zm-1.325-.508h.052c.154.012.292.019.428.033a.276.276,0,1,1-.06.546,3.791,3.791,0,0,0-.429-.029c-.213,0-.345-.113-.342-.281S310.323,499.919,310.534,499.923Z" transform="translate(-304.376 -497.709)" fill="#00a3e0"/>
      <path id="Path_4001" data-name="Path 4001" d="M306.651,620.964c.106.32.213.627.307.939a.194.194,0,0,0,.226.162q4.188-.008,8.377,0c.3,0,.6,0,.9,0,.086,0,.13-.017.158-.109.1-.328.214-.651.328-.99Z" transform="translate(-305.714 -612.659)" fill="#00a3e0"/>
      <path id="Path_4002" data-name="Path 4002" d="M304.506,604.955a1.449,1.449,0,0,0,.155,0,.27.27,0,0,0,.244-.283c0-.182-.122-.268-.364-.268H293.1a1.062,1.062,0,0,0-.121,0,.269.269,0,0,0-.243.283c0,.177.121.268.346.268h11.42Z" transform="translate(-292.739 -597.212)" fill="#00a3e0"/>
    </g>
  </g>
</svg>
