<svg xmlns="http://www.w3.org/2000/svg" width="21.967" height="17.261" viewBox="0 0 21.967 17.261">
  <g id="KDS2" transform="translate(-187.944 -434.227)">
    <g id="Group_12384" data-name="Group 12384" transform="translate(187.944 434.227)">
      <g id="Group_12381" data-name="Group 12381" transform="translate(0 0)">
        <path id="Path_4003" data-name="Path 4003" d="M213.017,452.715c-.082.093-.074.218-.11.327a2.3,2.3,0,0,1-2.284,1.551c-3.406-.015-6.811,0-10.217,0q-3.3,0-6.593,0a2.254,2.254,0,0,1-2.069-1.132,2.054,2.054,0,0,1-.3-1.079c0-4.522,0-7.917,0-12.439a2.241,2.241,0,0,1,2.3-2.21c.316-.006.632,0,.948,0h15.925a2.269,2.269,0,0,1,2.285,1.545,1.365,1.365,0,0,0,.11.37Zm-10.782-14.083h-8.4a1.358,1.358,0,0,0-1.481,1.476c0,4.409,0,7.692,0,12.1a1.755,1.755,0,0,0,.043.459,1.364,1.364,0,0,0,1.419,1.015h16.81a1.362,1.362,0,0,0,1.492-1.487c0-4.4,0-7.678,0-12.081a1.92,1.92,0,0,0-.042-.459,1.347,1.347,0,0,0-1.387-1.025Z" transform="translate(-191.247 -437.529)" fill="#00a3e0"/>
        <path id="Path_4004" data-name="Path 4004" d="M207.334,451.487h-.015c-2.433-.011-4.908-.009-7.3-.007l-2.915,0h-1.9q-2.346,0-4.692,0h0a2.45,2.45,0,0,1-2.234-1.227,2.251,2.251,0,0,1-.328-1.181v-3.553c0-2.89,0-5.619,0-8.886a2.432,2.432,0,0,1,2.5-2.407c.219,0,.441,0,.655,0h16.222a2.48,2.48,0,0,1,2.471,1.678,1.118,1.118,0,0,1,.04.169.415.415,0,0,0,.045.152l.035.051v13.208l-.05.056a.292.292,0,0,0-.038.123,1.044,1.044,0,0,1-.031.134A2.494,2.494,0,0,1,207.334,451.487Zm-4.416-.4c1.465,0,2.941,0,4.4.008h.012a2.105,2.105,0,0,0,2.083-1.415.7.7,0,0,0,.019-.085.7.7,0,0,1,.081-.245V436.394a.849.849,0,0,1-.074-.248.8.8,0,0,0-.025-.111,2.075,2.075,0,0,0-2.1-1.412H191.1c-.212,0-.431,0-.646,0a2.046,2.046,0,0,0-2.11,2.013c0,3.266,0,6,0,8.885v3.554a1.862,1.862,0,0,0,.271.977,2.053,2.053,0,0,0,1.9,1.037h0q2.346,0,4.693,0h1.9l2.914,0Zm-3.549-.506h-8.861a1.559,1.559,0,0,1-1.609-1.161,1.928,1.928,0,0,1-.05-.511v-1.331c0-3.768,0-6.816,0-10.771a1.555,1.555,0,0,1,1.678-1.673h16.852a1.539,1.539,0,0,1,1.578,1.174,2.1,2.1,0,0,1,.048.507c0,4.645,0,7.947,0,12.081a1.55,1.55,0,0,1-1.689,1.684Zm-4.955-15.052h-3.887a1.167,1.167,0,0,0-1.284,1.279c0,3.954,0,7,0,10.771v1.331a1.584,1.584,0,0,0,.036.408,1.17,1.17,0,0,0,1.229.869h16.81a1.166,1.166,0,0,0,1.295-1.29c0-4.134,0-7.435,0-12.081a1.761,1.761,0,0,0-.036-.412,1.147,1.147,0,0,0-1.2-.875H194.414Z" transform="translate(-187.944 -434.227)" fill="#00a3e0"/>
      </g>
      <g id="Group_12382" data-name="Group 12382" transform="translate(2.752 2.329)">
        <path id="Path_4005" data-name="Path 4005" d="M225.285,478.581a6.354,6.354,0,0,1,.06-1.269,2.213,2.213,0,0,1,2.044-1.7c.637-.031,1.276-.018,1.914-.014a.455.455,0,0,1,.479.386.468.468,0,0,1-.288.487.558.558,0,0,1-.227.028c-.554,0-1.108,0-1.662,0a1.345,1.345,0,0,0-1.413,1.392c-.009.561,0,1.122,0,1.683a.47.47,0,0,1-.305.5.449.449,0,0,1-.6-.429c0-.007,0-.014,0-.021Z" transform="translate(-225.282 -475.59)" fill="#00a3e0"/>
      </g>
      <g id="Group_12383" data-name="Group 12383" transform="translate(14.54 10.423)">
        <path id="Path_4006" data-name="Path 4006" d="M462.237,620.856a6.6,6.6,0,0,1-.054,1.251,2.217,2.217,0,0,1-2.051,1.722c-.637.031-1.276.018-1.914.014a.455.455,0,0,1-.478-.387.469.469,0,0,1,.289-.487.564.564,0,0,1,.227-.027c.547,0,1.094,0,1.641,0a1.351,1.351,0,0,0,1.434-1.414c.007-.554,0-1.108,0-1.662a.471.471,0,0,1,.306-.5.449.449,0,0,1,.6.43c0,.007,0,.014,0,.021Z" transform="translate(-457.735 -619.343)" fill="#00a3e0"/>
      </g>
    </g>
    <g id="Group_12388" data-name="Group 12388" transform="translate(193.195 437.801)">
      <g id="Group_12385" data-name="Group 12385" transform="translate(0.755 0)">
        <path id="Path_4007" data-name="Path 4007" d="M309.744,499.195a.788.788,0,0,1-.555-.893.752.752,0,0,1,1.473.012.786.786,0,0,1-.561.88,4.752,4.752,0,0,1,4.482,3.981c.014.076.023.153.031.23.026.265.025.265-.235.265q-4.5,0-9,0c-.161,0-.175-.045-.159-.19a4.752,4.752,0,0,1,4.523-4.289Zm4.277,3.721c-.008-.029-.017-.064-.027-.1a4.19,4.19,0,0,0-2.3-2.724,1.1,1.1,0,0,0-.243-.094.221.221,0,0,0-.268.155.226.226,0,0,0,.1.283.778.778,0,0,0,.139.067,3.728,3.728,0,0,1,2.009,2.141c.046.12.075.246.12.366a.222.222,0,0,0,.27.153A.251.251,0,0,0,314.021,502.915Zm-3.982-3.218h-.047c-.189,0-.312.091-.315.243s.116.25.307.252a3.426,3.426,0,0,1,.386.026.248.248,0,1,0,.054-.491C310.3,499.714,310.178,499.708,310.039,499.7Z" transform="translate(-305.216 -497.709)" fill="#00a3e0"/>
      </g>
      <g id="Group_12386" data-name="Group 12386" transform="translate(0.842 7.459)">
        <path id="Path_4008" data-name="Path 4008" d="M315.9,620.964c-.1.3-.2.595-.294.889-.025.083-.064.1-.142.1-.269,0-.538,0-.807,0q-3.762,0-7.524,0a.174.174,0,0,1-.2-.146c-.085-.28-.181-.556-.276-.843Z" transform="translate(-306.651 -620.964)" fill="#00a3e0"/>
      </g>
      <g id="Group_12387" data-name="Group 12387" transform="translate(0 6.457)">
        <path id="Path_4009" data-name="Path 4009" d="M298.187,604.9h-5.137c-.2,0-.307-.082-.311-.241a.241.241,0,0,1,.218-.255,1,1,0,0,1,.109,0H303.34c.218,0,.323.078.327.24a.242.242,0,0,1-.219.255,1.266,1.266,0,0,1-.14,0Z" transform="translate(-292.739 -604.401)" fill="#00a3e0"/>
      </g>
    </g>
  </g>
</svg>
