<svg xmlns="http://www.w3.org/2000/svg" width="30.528" height="30.531" viewBox="0 0 30.528 30.531">
  <g id="iconfinder_1976051_config_configuration_settings_icon" transform="translate(0.269 0.269)">
    <path id="Path_3082" data-name="Path 3082" d="M31.585,14.8l.556-1.492L30.555,9.474l-1.448-.661-1.676.559-.419-.131a12.665,12.665,0,0,0-1.836-1.833l-.131-.422L25.6,5.309l-.661-1.448L21.114,2.275l-1.49.557-.792,1.582-.39.2a12.628,12.628,0,0,0-2.594,0l-.39-.2-.79-1.579-1.49-.559L9.348,3.861,8.687,5.309l.559,1.675-.132.42A12.589,12.589,0,0,0,7.28,9.24l-.42.131L5.184,8.812l-1.448.661L2.15,13.3,2.706,14.8l1.582.792.2.39a12.736,12.736,0,0,0,0,2.594l-.2.39-1.579.79-.556,1.492,1.586,3.829,1.448.661,1.675-.557.419.131a12.665,12.665,0,0,0,1.836,1.833l.131.419-.559,1.678.662,1.448,3.829,1.586,1.492-.557.79-1.58.39-.2a12.642,12.642,0,0,0,2.6,0l.388.2.79,1.579,1.49.556,3.829-1.586.661-1.448-.557-1.675.131-.419A12.664,12.664,0,0,0,27.01,25.3l.419-.131,1.678.559,1.448-.661,1.586-3.83-.556-1.492L30,18.957l-.2-.388a12.75,12.75,0,0,0,0-2.6l.2-.39Zm-2.617-.266L28.355,15.7l.026.216a11.25,11.25,0,0,1,0,2.7l-.026.218.615,1.177,1.492.746.169.454-1.163,2.806-.44.2-1.583-.527-1.267.4-.135.172a11.243,11.243,0,0,1-1.9,1.909l-.172.134-.4,1.267.527,1.582-.2.44-2.806,1.163-.454-.169-.746-1.49L18.71,28.48l-.216.026a11.262,11.262,0,0,1-2.7,0l-.216-.026-1.177.615-.746,1.493-.454.169L10.4,29.593l-.2-.44.527-1.583-.4-1.267-.172-.135a11.252,11.252,0,0,1-1.909-1.906l-.134-.172-1.265-.4-1.582.528-.44-.2L3.662,21.213l.169-.454,1.288-.645.23-.154.588-1.124-.026-.216a11.249,11.249,0,0,1,0-2.7l.026-.218L5.324,14.53l-1.492-.746-.171-.454,1.163-2.806.44-.2,1.583.527,1.267-.4.135-.172a11.243,11.243,0,0,1,1.9-1.909l.172-.135.4-1.267L10.2,5.391l.2-.44L13.2,3.788l.454.169.746,1.49,1.175.615.216-.026a11.249,11.249,0,0,1,2.7,0l.218.026,1.177-.617.747-1.493.454-.169L23.893,4.95l.2.44-.527,1.583.4,1.267.172.135a11.252,11.252,0,0,1,1.909,1.906l.134.172,1.267.4,1.582-.527.44.2,1.163,2.806-.169.454Z" transform="translate(-2.15 -2.275)" fill="#fff" stroke="#fff" stroke-width="0.5"/>
    <path id="Path_3083" data-name="Path 3083" d="M11.514,7a4.59,4.59,0,1,0,4.6,4.59A4.6,4.6,0,0,0,11.514,7Zm0,8.345a3.755,3.755,0,1,1,3.767-3.755A3.765,3.765,0,0,1,11.514,15.343Z" transform="translate(3.469 3.297)" fill="#fff" stroke="#fff" stroke-width="0.5"/>
  </g>
</svg>
