<svg xmlns="http://www.w3.org/2000/svg" width="25.246" height="29.217" viewBox="0 0 25.246 29.217">
  <g id="file" transform="translate(0.05 0.05)">
    <g id="Group_68" data-name="Group 68" transform="translate(0 0)">
      <g id="Group_49" data-name="Group 49">
        <g id="Group_48" data-name="Group 48">
          <path id="Path_53" data-name="Path 53" d="M557.282-.4a.662.662,0,0,0,.662-.662V-4.367a1.988,1.988,0,0,0-1.985-1.985h-1.115A4.634,4.634,0,0,0,550.665-9h-5.294a4.633,4.633,0,0,0-4.179,2.647h-1.115a1.988,1.988,0,0,0-1.985,1.985v22.5a1.988,1.988,0,0,0,1.985,1.985h15.882a1.988,1.988,0,0,0,1.985-1.985V14.824a.662.662,0,0,0-1.324,0v3.309a.663.663,0,0,1-.662.662H540.077a.663.663,0,0,1-.662-.662v-22.5a.663.663,0,0,1,.662-.662h.715a4.655,4.655,0,0,0-.053.662v1.323a.662.662,0,0,0,.662.662h13.235a.662.662,0,0,0,.662-.662V-4.367a4.663,4.663,0,0,0-.053-.662h.715a.663.663,0,0,1,.662.662v3.309A.662.662,0,0,0,557.282-.4Zm-3.309-3.309H542.062v-.662a3.312,3.312,0,0,1,3.309-3.309h5.294a3.312,3.312,0,0,1,3.309,3.309v.662Z" transform="translate(-538.092 8.999)" fill="#71767b" stroke="#707070" stroke-width="0.1"/>
        </g>
      </g>
      <g id="Group_51" data-name="Group 51" transform="translate(9.264 2.647)">
        <g id="Group_50" data-name="Group 50">
          <ellipse id="Ellipse_4" data-name="Ellipse 4" cx="0.662" cy="0.662" rx="0.662" ry="0.662" fill="#71767b" stroke="#707070" stroke-width="0.1"/>
        </g>
      </g>
      <g id="Group_53" data-name="Group 53" transform="translate(3.97 8.603)">
        <g id="Group_52" data-name="Group 52">
          <path id="Path_54" data-name="Path 54" d="M617.524,138.729H606.936a.662.662,0,1,0,0,1.323h10.588a.662.662,0,1,0,0-1.323Z" transform="translate(-606.274 -138.729)" fill="#71767b" stroke="#707070" stroke-width="0.1"/>
        </g>
      </g>
      <g id="Group_55" data-name="Group 55" transform="translate(3.97 11.911)">
        <g id="Group_54" data-name="Group 54">
          <path id="Path_55" data-name="Path 55" d="M614.215,195.546h-7.279a.662.662,0,0,0,0,1.324h7.279a.662.662,0,0,0,0-1.324Z" transform="translate(-606.274 -195.546)" fill="#71767b" stroke="#707070" stroke-width="0.1"/>
        </g>
      </g>
      <g id="Group_57" data-name="Group 57" transform="translate(3.97 15.22)">
        <g id="Group_56" data-name="Group 56">
          <path id="Path_56" data-name="Path 56" d="M613.553,252.364h-6.617a.662.662,0,0,0,0,1.324h6.617a.662.662,0,1,0,0-1.324Z" transform="translate(-606.274 -252.364)" fill="#71767b" stroke="#707070" stroke-width="0.1"/>
        </g>
      </g>
      <g id="Group_59" data-name="Group 59" transform="translate(9.264 21.838)">
        <g id="Group_58" data-name="Group 58">
          <path id="Path_57" data-name="Path 57" d="M703.138,366h-5.294a.662.662,0,1,0,0,1.323h5.294a.662.662,0,1,0,0-1.323Z" transform="translate(-697.182 -366.001)" fill="#71767b" stroke="#707070" stroke-width="0.1"/>
        </g>
      </g>
      <g id="Group_61" data-name="Group 61" transform="translate(3.97 21.838)">
        <g id="Group_60" data-name="Group 60">
          <path id="Path_58" data-name="Path 58" d="M609.583,366h-2.647a.662.662,0,1,0,0,1.323h2.647a.662.662,0,1,0,0-1.323Z" transform="translate(-606.274 -366.001)" fill="#71767b" stroke="#707070" stroke-width="0.1"/>
        </g>
      </g>
      <g id="Group_63" data-name="Group 63" transform="translate(3.97 18.529)">
        <g id="Group_62" data-name="Group 62">
          <path id="Path_59" data-name="Path 59" d="M614.215,309.183h-7.279a.662.662,0,1,0,0,1.323h7.279a.662.662,0,1,0,0-1.323Z" transform="translate(-606.274 -309.183)" fill="#71767b" stroke="#707070" stroke-width="0.1"/>
        </g>
      </g>
      <g id="Group_65" data-name="Group 65" transform="translate(13.235 9.926)">
        <g id="Group_64" data-name="Group 64">
          <path id="Path_60" data-name="Path 60" d="M771.32,161.456a5.956,5.956,0,1,0,5.956,5.956A5.963,5.963,0,0,0,771.32,161.456Zm0,10.588a4.632,4.632,0,1,1,4.632-4.632A4.637,4.637,0,0,1,771.32,172.044Z" transform="translate(-765.364 -161.456)" fill="#71767b" stroke="#707070" stroke-width="0.1"/>
        </g>
      </g>
      <g id="Group_67" data-name="Group 67" transform="translate(16.544 13.235)">
        <g id="Group_66" data-name="Group 66">
          <path id="Path_61" data-name="Path 61" d="M827.162,218.371a.662.662,0,0,0-.908.227L824.7,221.18l-1.386-1.386a.662.662,0,0,0-.936.936l1.985,1.985a.659.659,0,0,0,.467.193.626.626,0,0,0,.081,0,.661.661,0,0,0,.486-.316l1.985-3.309A.661.661,0,0,0,827.162,218.371Z" transform="translate(-822.189 -218.277)" fill="#71767b" stroke="#707070" stroke-width="0.1"/>
        </g>
      </g>
    </g>
  </g>
</svg>
