<svg xmlns="http://www.w3.org/2000/svg" width="19.572" height="26.03" viewBox="0 0 19.572 26.03">
  <g id="notification" transform="translate(0.311 0.3)">
    <g id="XMLID_179_">
      <path id="XMLID_182_" d="M84.006,21.476a3.359,3.359,0,0,1-1.185-2.563v-7.52A8.129,8.129,0,0,0,76.5,3.478V1.789a1.789,1.789,0,1,0-3.578,0V3.478a8.129,8.129,0,0,0-6.326,7.916v7.52a3.359,3.359,0,0,1-1.185,2.563.5.5,0,0,0,.322.875h6.5a2.535,2.535,0,1,0,4.948,0h6.5a.5.5,0,0,0,.322-.875ZM73.91,1.789a.8.8,0,1,1,1.591,0V3.318q-.393-.038-.8-.039t-.8.039Zm.8,2.483a7.129,7.129,0,0,1,7.121,7.121v7.023H67.585V11.394a7.13,7.13,0,0,1,7.121-7.121ZM76.248,22.9a1.542,1.542,0,0,1-3.083,0,1.516,1.516,0,0,1,.1-.544h2.883A1.516,1.516,0,0,1,76.248,22.9Zm-9.413-1.537a4.347,4.347,0,0,0,.722-1.948h14.3a4.347,4.347,0,0,0,.722,1.948Z" transform="translate(-65.231)" fill="#71767b" stroke="#707070" stroke-width="0.6"/>
    </g>
  </g>
</svg>
