<svg xmlns="http://www.w3.org/2000/svg" width="23.649" height="23.709" viewBox="0 0 23.649 23.709">
  <g id="search-interface-symbol" transform="translate(0.25 0.25)">
    <g id="_x34__4_" transform="translate(0)">
      <g id="Group_45" data-name="Group 45" transform="translate(0)">
        <path id="Path_51" data-name="Path 51" d="M22.936,21.89l-5.977-5.881a9.454,9.454,0,0,0,2.527-6.424A9.664,9.664,0,0,0,9.746,0,9.663,9.663,0,0,0,.006,9.585a9.663,9.663,0,0,0,9.74,9.585,9.8,9.8,0,0,0,6.13-2.14l6,5.9a.757.757,0,0,0,1.059,0A.73.73,0,0,0,22.936,21.89Zm-13.19-4.2A8.176,8.176,0,0,1,1.5,9.585a8.176,8.176,0,0,1,8.241-8.11,8.176,8.176,0,0,1,8.241,8.11A8.176,8.176,0,0,1,9.746,17.695Z" transform="translate(-0.006)" fill="#737373" stroke="#707070" stroke-width="0.5"/>
      </g>
    </g>
  </g>
</svg>
