<?xml version="1.0" encoding="utf-8"?>
<!-- Generator: Adobe Illustrator 25.2.0, SVG Export Plug-In . SVG Version: 6.00 Build 0)  -->
<svg version="1.1" id="Layer_1" xmlns="http://www.w3.org/2000/svg" xmlns:xlink="http://www.w3.org/1999/xlink" x="0px" y="0px"
	 viewBox="0 0 32 32" style="enable-background:new 0 0 32 32;" xml:space="preserve">
<style type="text/css">
	.st0{fill:#1D1D1F;}
	.st1{fill:#FFFFFF;}
</style>
<g>
	<circle class="st0" cx="16" cy="16" r="15.5"/>
	<g>
		<path class="st1" d="M11.9,8.3h6c1.5,0,2.8,0.5,3.7,1.4c1,0.9,1.4,2.2,1.4,3.7c0,1.5-0.5,2.8-1.5,3.7c-1,1-2.3,1.4-3.8,1.4h-3.1
			v5.1h-2.7V8.3z M14.6,10.6v5.8h2.5c1,0,1.8-0.3,2.3-0.8s0.8-1.2,0.8-2.2c0-0.9-0.3-1.6-0.8-2.1c-0.5-0.5-1.3-0.8-2.3-0.8H14.6z"/>
	</g>
</g>
</svg>
