<svg xmlns="http://www.w3.org/2000/svg" width="31.339" height="28.355" viewBox="0 0 31.339 28.355"><defs><style>.a{fill:none;stroke:#078cd6;stroke-linecap:round;stroke-linejoin:round;stroke-width:1.5px;}.b{fill:#00a3e0;}</style></defs><g transform="translate(-6.25 -9.25)"><path class="a" d="M12.371,35.516H9.387A2.387,2.387,0,0,1,7,33.129V22.387A2.387,2.387,0,0,1,9.387,20H34.452a2.387,2.387,0,0,1,2.387,2.387V33.129a2.387,2.387,0,0,1-2.387,2.387H31.468" transform="translate(0 -4.032)"/><line class="a" x2="20" transform="translate(11.92 27.928)"/><path class="a" d="M20,41H34.323v7.161a1.194,1.194,0,0,1-1.194,1.194H21.194A1.194,1.194,0,0,1,20,48.161Z" transform="translate(-5.242 -12.5)"/><circle class="b" cx="1.194" cy="1.194" r="1.194" transform="translate(28.783 20.444)"/><path class="a" d="M30.936,10v2.387a1.194,1.194,0,0,0,1.194,1.194h2.423L31.4,10h-11.2A1.194,1.194,0,0,0,19,11.194v4.178" transform="translate(-4.839)"/><line class="a" x2="8" transform="translate(17.92 30.928)"/></g></svg>