<svg xmlns="http://www.w3.org/2000/svg" width="512.001" height="340.001" viewBox="0 0 512.001 340.001">
  <g id="_2668966" data-name="2668966" transform="translate(0 -86)">
    <g id="Group_2" data-name="Group 2">
      <path id="Path_2" data-name="Path 2" d="M512,121a35.04,35.04,0,0,0-35-35H165a10,10,0,0,0,0,20H477a15,15,0,1,1,0,30H35a15,15,0,0,1,0-30H75a10,10,0,0,0,0-20H35a34.995,34.995,0,0,0-2.681,69.887L20.043,393.742c-.857,16.61,11.132,30.729,27.3,32.145q1.319.115,2.617.114c15.06,0,27.917-11.422,29.846-27.03L104.887,196H407.115L432.2,398.971c1.929,15.61,14.785,27.03,29.846,27.03.865,0,1.739-.037,2.617-.114,16.163-1.414,28.153-15.534,27.3-32.145L479.683,155.887A35.039,35.039,0,0,0,512,121ZM59.953,396.518c-.712,5.768-5.491,9.924-10.87,9.445s-9.366-5.386-9.066-11.189L52.34,156H89.678ZM107.359,176l2.472-20H402.172l2.472,20ZM462.92,405.963c-5.385.47-10.158-3.679-10.872-9.445L422.324,156h37.338l12.324,238.772C472.285,400.576,468.3,405.491,462.92,405.963Z" fill="#fff"/>
      <path id="Path_3" data-name="Path 3" d="M120,106a10,10,0,1,0,0-20H120A10,10,0,0,0,120,106Z" fill="#fff"/>
    </g>
  </g>
</svg>
