<svg xmlns="http://www.w3.org/2000/svg" width="511.999" height="511.974" viewBox="0 0 511.999 511.974">
  <g id="_1535041" data-name="1535041" transform="translate(-0.001 0.001)">
    <path id="Path_26" data-name="Path 26" d="M498.227,440.582a75.268,75.268,0,0,0-8.273-96.625L456.493,310.5a207.291,207.291,0,0,0,6.008-77.645,7.5,7.5,0,0,0-14.906,1.656,192.346,192.346,0,0,1-3.484,63.6l-10.734-10.734a29.16,29.16,0,1,0-41.238,41.238l28.18,28.168a193.125,193.125,0,0,1-206.465,87.3l10.75-10.75A29.159,29.159,0,0,0,183.36,392.1l-28.215,28.211a194.282,194.282,0,0,1-64.859-65.625c-.078-.16-.137-.328-.23-.48-3.176-5.383-6.074-10.883-8.629-16.379a190.474,190.474,0,0,1-9.484-24.469,7.635,7.635,0,0,0-.437-1.074A192.562,192.562,0,0,1,63.891,238.4a7.5,7.5,0,0,0-14.937-1.352,207.377,207.377,0,0,0,7.27,76.473l-32.3,32.3a75.241,75.241,0,0,0-8.594,96.164l-.75.75a29.848,29.848,0,0,0,0,42.219L28.489,498.86a29.876,29.876,0,0,0,42.211,0l.672-.672a74.761,74.761,0,0,0,43.3,13.785,76.287,76.287,0,0,0,13.875-1.277,7.5,7.5,0,0,0-2.727-14.75,60.032,60.032,0,0,1-43.629-8.57l15.8-15.8a29.656,29.656,0,0,0,7.848-13.809,28.471,28.471,0,0,0,36.309-3.25l19.43-19.426.039-.039,32.352-32.348a14.192,14.192,0,0,1,20.039,0,14.16,14.16,0,0,1-.008,20.012l-20,20c-.031.027-.055.055-.082.082l-36.5,36.5a61.372,61.372,0,0,1-6.332,5.52,7.5,7.5,0,1,0,9.047,11.961,75.577,75.577,0,0,0,7.891-6.875l33.449-33.441a207.707,207.707,0,0,0,111.953-.867l32.434,32.445a75.048,75.048,0,0,0,50.191,21.984q1.529.064,3.051.063a74.958,74.958,0,0,0,42.934-13.465l.758.758a29.885,29.885,0,0,0,42.211,0L498.9,483.477a29.843,29.843,0,0,0,0-42.215ZM16.918,396.609a60.089,60.089,0,0,1,17.609-40.184l26.98-26.977A206.521,206.521,0,0,0,74.2,356.809L59.3,371.7a28.45,28.45,0,0,0-3.539,35.91,29.679,29.679,0,0,0-13.9,7.848L26.145,431.172a60.039,60.039,0,0,1-9.227-34.562Zm70.461,64.363-21.8,21.8s0,0-.008.008l-5.477,5.477a14.872,14.872,0,0,1-21,0L25.184,474.348a14.848,14.848,0,0,1,0-21l5.363-5.363a.722.722,0,0,0,.055-.055l21.867-21.863a14.858,14.858,0,0,1,20.957-.039L86.711,439.3l.668.668a14.858,14.858,0,0,1,0,21Zm44.156-17.059a13.42,13.42,0,0,1-18.992,0l-14.484-14.48s-.074-.07-.074-.074l-6.477-6.477-7.43-7.426c-.016-.016-.035-.031-.051-.047L69.91,401.3a13.42,13.42,0,0,1,0-18.992L82.219,370a209.031,209.031,0,0,0,23.215,29.184l-3.855,3.855a7.5,7.5,0,0,0,10.609,10.605l3.98-3.98a208.19,208.19,0,0,0,28.105,21.52ZM402.746,297.976a14.179,14.179,0,0,1,20.023,0l56.578,56.582a60.587,60.587,0,0,1,8.07,75.211l-15.8-15.8a29.7,29.7,0,0,0-13.809-7.824,28.426,28.426,0,0,0-3.242-36.328l-51.828-51.816a14.182,14.182,0,0,1,0-20.031Zm-3.582,108.5,3.906,3.906a7.5,7.5,0,1,0,10.605-10.609l-4.039-4.039a208.765,208.765,0,0,0,21.543-28.09l12.785,12.781a13.429,13.429,0,0,1,0,18.992l-14.52,14.52c-.012.012-.027.023-.039.035L415.5,427.882a.368.368,0,0,0-.039.039L401.336,442.05a13.457,13.457,0,0,1-19,0l-12.395-12.4a207.79,207.79,0,0,0,29.223-23.172Zm-2.523,88.563a60.1,60.1,0,0,1-40.184-17.605L329.4,450.375c5.023-1.891,9.98-3.977,14.828-6.246,4.211-1.965,8.422-4.113,12.566-6.406l14.938,14.934a28.48,28.48,0,0,0,35.895,3.539A29.683,29.683,0,0,0,415.5,470.1l15.711,15.707a60.141,60.141,0,0,1-34.566,9.234ZM488.3,472.867l-13.91,13.906a14.864,14.864,0,0,1-21,0l-27.281-27.281a14.844,14.844,0,0,1-.02-20.98l13.945-13.945a14.867,14.867,0,0,1,20.98.016l21.93,21.93a.008.008,0,0,1,.008.008l5.348,5.344a14.848,14.848,0,0,1,0,21Zm0,0" fill="#fff"/>
    <path id="Path_27" data-name="Path 27" d="M78.633,224.539a29.157,29.157,0,0,0,41.23-41.238L91.559,155a193.341,193.341,0,0,1,25.848-33.223,8.092,8.092,0,0,0,.617-.551,7.509,7.509,0,0,0,.672-.785l.887-.9a193.587,193.587,0,0,1,37.078-29A7.588,7.588,0,0,0,157.781,90c5.336-3.152,10.832-6.055,16.355-8.629a191.916,191.916,0,0,1,24.48-9.48,7.372,7.372,0,0,0,1.25-.531,192.676,192.676,0,0,1,98.453-3.605L287.449,78.629a29.152,29.152,0,0,0,41.227,41.227l28.27-28.266a194.36,194.36,0,0,1,66.219,68.18c3.293,5.727,12.668,25.531,16.73,38.02a7.371,7.371,0,0,0,.508,1.613.1.1,0,0,1,.008.027c1.508,4.98,4.492,4.449,6.848,4.449h.008a7.5,7.5,0,0,0,5.3-2.2l35.559-35.547a75.252,75.252,0,0,0,8.59-96.168l.75-.75a29.852,29.852,0,0,0,0-42.215L483.555,13.1a29.888,29.888,0,0,0-42.215,0l-.672.672a75.3,75.3,0,0,0-96.645,8.281L310.7,55.379a207.659,207.659,0,0,0-112.281.773l-32.27-32.277a75.268,75.268,0,0,0-96.176-8.586l-.75-.754a29.891,29.891,0,0,0-42.215,0L13.1,28.441a29.843,29.843,0,0,0,0,42.215l.676.676a75.266,75.266,0,0,0,8.269,96.629ZM413.746,82.281c.1.1.2.211.309.313l28.074,28.063a13.424,13.424,0,0,1,0,19L429.8,141.984a209.112,209.112,0,0,0-23.187-29.211l3.855-3.852a7.5,7.5,0,0,0-10.605-10.605l-3.965,3.965a208.052,208.052,0,0,0-28.078-21.555L380.5,68.039a13.455,13.455,0,0,1,19,0Zm81.379,33.066a60.057,60.057,0,0,1-17.605,40.18L450.34,182.7a268.769,268.769,0,0,0-12.57-27.469l14.961-14.965a28.445,28.445,0,0,0,3.543-35.91A29.666,29.666,0,0,0,470.179,96.5l15.715-15.715a60.021,60.021,0,0,1,9.23,34.562ZM462.449,19.359a14.8,14.8,0,0,1,10.5,4.344l13.91,13.906a14.858,14.858,0,0,1,0,21L481.4,64.07a.53.53,0,0,0-.047.047L459.574,85.894a14.867,14.867,0,0,1-21,0L424.668,71.988a14.868,14.868,0,0,1,0-21L451.949,23.7a14.785,14.785,0,0,1,10.5-4.344ZM354.633,32.652a60.6,60.6,0,0,1,75.227-8.07l-15.8,15.8A29.649,29.649,0,0,0,406.231,54.2,28.483,28.483,0,0,0,369.9,57.433l-51.82,51.816a14.178,14.178,0,0,1-20.027,0,14.146,14.146,0,0,1,.008-20.016ZM68.043,131.484a13.429,13.429,0,0,1,0-18.992l42.633-42.625a13.446,13.446,0,0,1,19,0l12.25,12.246a209.165,209.165,0,0,0-29.207,23.2l-3.785-3.785a7.5,7.5,0,0,0-10.605,10.609l3.9,3.895a207.874,207.874,0,0,0-21.531,28.1ZM115.355,16.875a60.076,60.076,0,0,1,40.188,17.605L182.488,61.43A207.364,207.364,0,0,0,155.121,74.1L140.277,59.258a28.474,28.474,0,0,0-35.9-3.531A29.651,29.651,0,0,0,96.5,41.816L80.789,26.106a60.057,60.057,0,0,1,34.566-9.23ZM23.707,39.047,37.613,25.141a14.877,14.877,0,0,1,21,0l5.434,5.438c.027.023.055.055.082.078L85.9,52.422a14.858,14.858,0,0,1,0,21L71.992,87.332a14.868,14.868,0,0,1-21,0L23.707,60.051a14.848,14.848,0,0,1,0-21Zm.883,43.1L40.383,97.938A29.689,29.689,0,0,0,54.2,105.766a28.42,28.42,0,0,0,3.242,36.324l51.82,51.816a14.159,14.159,0,0,1-20.02,20.027L32.652,157.352A60.565,60.565,0,0,1,24.59,82.145Zm0,0" fill="#fff"/>
    <path id="Path_28" data-name="Path 28" d="M154.957,282.4l-36.809,32.625a14.092,14.092,0,0,0-1.2,19.871l20.281,22.879a.609.609,0,0,1,.063.078.649.649,0,0,0,.055.051L156.8,379.851a14.091,14.091,0,0,0,19.867,1.2l36.809-32.629a14.089,14.089,0,0,0,1.2-19.871L174.828,283.6a14.092,14.092,0,0,0-19.871-1.2Zm9.258,11.836,14.461,16.309-35.2,31.664-14.687-16.57Zm3.2,74.973-13.984-15.777,35.2-31.66L202.84,337.8Zm0,0" fill="#fff"/>
    <path id="Path_29" data-name="Path 29" d="M338.188,133.531l-52.8,46.8a15.225,15.225,0,0,0-1.293,21.492l38.328,43.234a15.126,15.126,0,0,0,10.477,5.1c.313.02.625.027.934.027a15.109,15.109,0,0,0,10.078-3.832l52.8-46.8A15.225,15.225,0,0,0,398,178.055l-38.324-43.23a15.245,15.245,0,0,0-21.492-1.293Zm48.648,54.637a.179.179,0,0,1-.074.152v0l-52.8,46.8a.167.167,0,0,1-.16.059.207.207,0,0,1-.156-.074l-38.324-43.234a.2.2,0,0,1-.059-.16.221.221,0,0,1,.074-.156l52.8-46.8a.224.224,0,0,1,.148-.059.211.211,0,0,1,.168.074l38.328,43.234A.187.187,0,0,1,386.836,188.168Zm0,0" fill="#fff"/>
  </g>
</svg>
